<svg width="1440" height="49" viewBox="0 0 1440 49" fill="none" xmlns="http://www.w3.org/2000/svg">
<path d="M-16 24.5C24.6933 -6.83333 75.56 -6.83333 136.6 24.5C197.64 55.8333 248.507 55.8333 289.2 24.5C329.893 -6.83333 380.76 -6.83333 441.8 24.5C502.84 55.8333 553.707 55.8333 594.4 24.5C635.093 -6.83333 685.96 -6.83333 747 24.5C808.04 55.8333 858.907 55.8333 899.6 24.5C940.293 -6.83333 991.16 -6.83333 1052.2 24.5C1113.24 55.8333 1164.11 55.8333 1204.8 24.5C1245.49 -6.83333 1296.36 -6.83333 1357.4 24.5C1418.44 55.8333 1469.31 55.8333 1510 24.5" stroke="#1D3354" stroke-width="2"/>
</svg>
