<svg width="407" height="40" viewBox="0 0 407 40" fill="none" xmlns="http://www.w3.org/2000/svg">
<path d="M1 14.7694C46.9 -3.07677 60.4 -3.07677 41.5 14.7694C22.6 32.6155 36.1 32.6155 82 14.7694C127.9 -3.07677 141.4 -3.07677 122.5 14.7694C103.6 32.6155 117.1 32.6155 163 14.7694C208.9 -3.07677 222.4 -3.07677 203.5 14.7694C184.6 32.6155 198.1 32.6155 244 14.7694C289.9 -3.07677 303.4 -3.07677 284.5 14.7694C265.6 32.6155 279.1 32.6155 325 14.7694C370.9 -3.07677 384.4 -3.07677 365.5 14.7694C346.6 32.6155 360.1 32.6155 406 14.7694" stroke="#1D3354" stroke-width="2"/>
<path d="M1 25.0772C46.9 7.23109 60.4 7.23109 41.5 25.0772C22.6 42.9234 36.1 42.9234 82 25.0772C127.9 7.23109 141.4 7.23109 122.5 25.0772C103.6 42.9234 117.1 42.9234 163 25.0772C208.9 7.23109 222.4 7.23109 203.5 25.0772C184.6 42.9234 198.1 42.9234 244 25.0772C289.9 7.23109 303.4 7.23109 284.5 25.0772C265.6 42.9234 279.1 42.9234 325 25.0772C370.9 7.23109 384.4 7.23109 365.5 25.0772C346.6 42.9234 360.1 42.9234 406 25.0772" stroke="#1D3354" stroke-width="2"/>
</svg>
