<svg width="737" height="42" viewBox="0 0 737 42" fill="none" xmlns="http://www.w3.org/2000/svg">
<path d="M1 14.3846C61.6333 -3.46154 79.4667 -3.46154 54.5 14.3846C29.5333 32.2308 47.3667 32.2308 108 14.3846C168.633 -3.46154 186.467 -3.46154 161.5 14.3846C136.533 32.2308 154.367 32.2308 215 14.3846C275.633 -3.46154 293.467 -3.46154 268.5 14.3846C243.533 32.2308 261.367 32.2308 322 14.3846C382.633 -3.46154 400.467 -3.46154 375.5 14.3846C350.533 32.2308 368.367 32.2308 429 14.3846C489.633 -3.46154 507.467 -3.46154 482.5 14.3846C457.533 32.2308 475.367 32.2308 536 14.3846" stroke="#1D3354" stroke-width="2"/>
<path d="M1 24.6925C61.6333 6.84632 79.4667 6.84632 54.5 24.6925C29.5333 42.5386 47.3667 42.5386 108 24.6925C168.633 6.84632 186.467 6.84632 161.5 24.6925C136.533 42.5386 154.367 42.5386 215 24.6925C275.633 6.84632 293.467 6.84632 268.5 24.6925C243.533 42.5386 261.367 42.5386 322 24.6925C382.633 6.84632 400.467 6.84632 375.5 24.6925C350.533 42.5386 368.367 42.5386 429 24.6925C489.633 6.84632 507.467 6.84632 482.5 24.6925C457.533 42.5386 475.367 42.5386 536 24.6925" stroke="#1D3354" stroke-width="2"/>
<path d="M529 16.3846C589.633 -1.46154 607.467 -1.46154 582.5 16.3846C557.533 34.2308 575.367 34.2308 636 16.3846C696.633 -1.46154 714.467 -1.46154 689.5 16.3846C664.533 34.2308 682.367 34.2308 743 16.3846" stroke="#1D3354" stroke-width="2"/>
<path d="M529 26.6925C589.633 8.84632 607.467 8.84632 582.5 26.6925C557.533 44.5386 575.367 44.5386 636 26.6925C696.633 8.84632 714.467 8.84632 689.5 26.6925C664.533 44.5386 682.367 44.5386 743 26.6925" stroke="#1D3354" stroke-width="2"/>
</svg>
