<svg width="1440" height="110" viewBox="0 0 1440 110" fill="none" xmlns="http://www.w3.org/2000/svg">
<path d="M0 85.5C40.2667 54.1667 90.6 54.1667 151 85.5C211.4 116.833 261.733 116.833 302 85.5C342.267 54.1667 392.6 54.1667 453 85.5C513.4 116.833 563.733 116.833 604 85.5C644.267 54.1667 694.6 54.1667 755 85.5C815.4 116.833 865.733 116.833 906 85.5C946.267 54.1667 996.6 54.1667 1057 85.5C1117.4 116.833 1167.73 116.833 1208 85.5C1248.27 54.1667 1298.6 54.1667 1359 85.5C1419.4 116.833 1469.73 116.833 1510 85.5" stroke="#1D3354" stroke-width="2"/>
<path d="M-16 24.5C24.6933 -6.83333 75.56 -6.83333 136.6 24.5C197.64 55.8333 248.507 55.8333 289.2 24.5C329.893 -6.83333 380.76 -6.83333 441.8 24.5C502.84 55.8333 553.707 55.8333 594.4 24.5C635.093 -6.83333 685.96 -6.83333 747 24.5C808.04 55.8333 858.907 55.8333 899.6 24.5C940.293 -6.83333 991.16 -6.83333 1052.2 24.5C1113.24 55.8333 1164.11 55.8333 1204.8 24.5C1245.49 -6.83333 1296.36 -6.83333 1357.4 24.5C1418.44 55.8333 1469.31 55.8333 1510 24.5" stroke="#1D3354" stroke-width="2"/>
<path d="M3.65789 29.6918C4.18069 29.9869 4.6303 30.453 5.00672 31.0901C4.40404 31.4462 3.98647 31.8207 3.75399 32.2135C3.52856 32.579 3.48783 33.0212 3.63181 33.5401L7.36652 47.2925C7.74445 48.7186 7.83438 49.8734 7.63631 50.757C7.45546 51.6304 6.94316 52.3164 6.09942 52.8149L4.653 53.6695L-2.63702 46.7565L-5.88758 43.5548L-4.4556 47.8658L-2.965 53.3966C-2.56673 54.8571 -2.44588 56.0052 -2.60247 56.8411C-2.75906 57.677 -3.25923 58.3442 -4.10297 58.8426L-5.49772 59.6667L-19.1492 46.9996C-19.5616 46.6161 -19.9393 46.4094 -20.2821 46.3797C-20.6249 46.3499 -21.0804 46.5029 -21.6486 46.8386C-22.0352 46.1843 -22.2265 45.5656 -22.2226 44.9825L-15.2488 40.8622C-14.6102 41.2747 -14.1434 41.7307 -13.8483 42.23C-14.451 42.5861 -14.8032 42.9336 -14.905 43.2725C-15.0068 43.6113 -14.9559 43.953 -14.7524 44.2974L-7.60213 51.3277L-5.93754 53.2015L-9.05375 42.3243C-9.34328 41.5197 -9.4755 40.7847 -9.45041 40.1195C-9.4081 39.4441 -9.13727 38.9588 -8.63791 38.6638L-5.92589 37.0615L2.44528 45.3915L4.32589 47.2771L3.57706 44.6531L1.09347 36.0852C1.03322 35.8653 0.957314 35.6778 0.865753 35.5228C0.601244 35.0751 0.229106 34.8188 -0.25066 34.7538C-0.740601 34.6716 -1.26108 34.7932 -1.81209 35.1188C-2.19868 34.4645 -2.39861 33.8508 -2.41188 33.2779L3.65789 29.6918Z" fill="#1D3354"/>
<path d="M28.3114 37.4529C28.5109 38.082 28.715 39.2552 28.9238 40.9724C29.1265 42.6706 29.1795 43.7972 29.0827 44.3524C28.7535 44.3729 28.3048 44.3473 27.7366 44.2757L14.4961 48.4736C13.8763 48.0407 13.4667 47.5097 13.2672 46.8805C13.9154 46.675 14.3557 46.4095 14.5882 46.084C14.8207 45.7586 14.8524 45.3289 14.6831 44.7951L10.4308 31.3831C10.2676 30.8683 9.9972 30.5449 9.61963 30.4128C9.26112 30.2747 8.75777 30.3084 8.10957 30.5139C7.9101 29.8848 7.93894 29.2148 8.1961 28.5038L19.2918 24.9859C19.5675 24.7306 19.903 24.4983 20.2982 24.2891C20.7065 24.0548 21.0918 23.8802 21.454 23.7653C21.9153 24.2275 22.4621 24.8934 23.0944 25.7629C23.7459 26.6264 24.1411 27.2774 24.2801 27.7159C24.1178 27.9982 23.7965 28.3413 23.3162 28.7454C22.8358 29.1495 22.4076 29.4531 22.0314 29.6563C21.5599 29.0295 20.9757 28.5433 20.2786 28.1978C19.5816 27.8523 18.8804 27.7914 18.175 28.015L14.9436 29.0396L16.8567 35.0736L18.9156 34.4208C20.1549 34.0279 20.5538 33.1356 20.1126 31.7438C20.9705 31.4718 21.8061 31.4272 22.6193 31.61L24.3058 36.929C24.0612 37.2164 23.7568 37.4807 23.3928 37.722C23.0226 37.9443 22.6278 38.1219 22.2084 38.2549C21.9787 37.5304 21.6349 37.0415 21.1769 36.7881C20.7188 36.5346 20.2134 36.4956 19.6605 36.6709L17.5729 37.3327L19.7036 44.0531L23.1639 42.956C23.9646 42.7021 24.5547 42.1478 24.9341 41.2932C25.3075 40.4195 25.4133 39.4628 25.2515 38.423L28.3114 37.4529Z" fill="#1D3354"/>
<path d="M30.6697 43.5512C30.4177 43.3451 30.208 43.0823 30.0407 42.763C29.8733 42.4436 29.764 42.1058 29.7125 41.7494C30.3856 41.6523 30.8449 41.4749 31.0906 41.2171C31.3363 40.9594 31.4192 40.5534 31.3392 39.9991L29.3251 26.0437C29.2451 25.4895 29.0508 25.1235 28.7423 24.9457C28.4309 24.7482 27.9386 24.698 27.2656 24.7951C27.2142 24.4388 27.225 24.0937 27.2981 23.7599C27.3683 23.4062 27.4951 23.0949 27.6786 22.8259L35.0126 21.7674C35.5138 22.1599 35.8215 22.752 35.9358 23.5438C35.2627 23.6409 34.785 23.8311 34.5026 24.1144C34.2201 24.3976 34.1175 24.8065 34.1946 25.3409L36.333 40.1574L37.4316 39.9989C38.8767 39.7903 39.877 39.161 40.4327 38.1108C41.0082 37.0578 41.1717 35.6702 40.9231 33.9481L43.0016 33.6481C43.3752 33.8569 43.7225 34.3726 44.0433 35.1952C44.364 36.0178 44.583 36.8349 44.7001 37.6465C44.8801 38.8935 44.7995 39.8751 44.4583 40.5912C44.1142 41.2875 43.4473 41.7071 42.4576 41.8499L30.6697 43.5512Z" fill="#1D3354"/>
<path d="M57.8097 27.2775C57.6376 25.9364 57.2738 24.8643 56.7185 24.061C56.1832 23.2579 55.4856 22.8538 54.6256 22.8487C53.4056 22.8416 52.4322 23.4159 51.7055 24.5717C50.9788 25.7074 50.6084 27.4753 50.5944 29.8753C50.5774 32.7752 51.125 34.8984 52.2371 36.245C53.3493 37.5915 54.7953 38.27 56.5753 38.2804C57.4353 38.2855 58.1962 38.1299 58.858 37.8138C59.5199 37.4976 59.9921 37.1204 60.2747 36.6821C60.5136 36.8635 60.7121 37.1346 60.8699 37.4956C61.0278 37.8565 61.1059 38.1869 61.1041 38.4869C61.1012 38.9869 60.8382 39.5054 60.315 40.0423C59.8119 40.5794 59.0792 41.0351 58.117 41.4095C57.1549 41.7639 56.0439 41.9374 54.7839 41.93C53.0239 41.9197 51.4163 41.5003 49.9612 40.6717C48.526 39.8433 47.3833 38.5966 46.533 36.9316C45.6827 35.2666 45.2645 33.2541 45.2783 30.8941C45.2918 28.5942 45.6932 26.6465 46.4826 25.0511C47.272 23.4357 48.3691 22.2321 49.7738 21.4403C51.1985 20.6286 52.8509 20.2283 54.7309 20.2393C55.1709 20.2419 55.6705 20.3048 56.2298 20.4281C56.7891 20.5514 57.2781 20.7142 57.697 20.9167C57.9978 20.7784 58.4386 20.641 59.0194 20.5044C59.6002 20.3678 60.0507 20.2905 60.3708 20.2723C60.9425 21.6957 61.2188 24.0374 61.1997 27.2973L57.8097 27.2775Z" fill="#1D3354"/>
<path d="M70.8269 43.2699C68.9283 42.9839 67.3523 42.3015 66.0991 41.2228C64.8685 40.1272 64.0095 38.7135 63.5221 36.9816C63.0347 35.2496 62.9518 33.3157 63.2736 31.1798C63.6103 28.945 64.275 27.0833 65.2679 25.5946C66.2637 24.0861 67.508 23.0094 69.0007 22.3646C70.5132 21.7228 72.1891 21.5404 74.0283 21.8175C75.9269 22.1035 77.5013 22.7957 78.7516 23.8943C80.0019 24.9928 80.8708 26.408 81.3583 28.1399C81.8684 29.8551 81.9612 31.7905 81.6364 33.9462C81.3027 36.1612 80.6281 38.0214 79.6125 39.5269C78.6196 41.0156 77.3669 42.0809 75.8545 42.7228C74.342 43.3646 72.6661 43.547 70.8269 43.2699ZM71.1531 41.1043C72.2408 41.2682 73.2147 40.7778 74.0748 39.6332C74.9547 38.4915 75.642 36.2792 76.1365 32.9962C76.6073 29.8715 76.6201 27.6385 76.1749 26.2972C75.7298 24.9559 74.9337 24.1989 73.7866 24.0261C72.6989 23.8622 71.7151 24.3511 70.8352 25.4928C69.9751 26.6374 69.2992 28.8413 68.8076 32.1045C68.3369 35.2293 68.3226 37.4722 68.7648 38.8332C69.2297 40.1775 70.0258 40.9345 71.1531 41.1043Z" fill="#1D3354"/>
<path d="M111.246 31.5451C111.387 31.8387 111.465 32.1656 111.481 32.5258C111.497 32.886 111.456 33.2288 111.357 33.5541C110.706 33.3563 110.183 33.3228 109.788 33.4535C109.412 33.59 109.146 33.9166 108.989 34.4333L104.887 47.9236C104.724 48.4593 104.754 48.8761 104.977 49.1739C105.219 49.4774 105.685 49.7339 106.374 49.9434C106.269 50.2878 106.11 50.6052 105.896 50.8956C105.682 51.186 105.435 51.414 105.155 51.5796L98.0369 49.4155C97.9154 49.1277 97.8466 48.8037 97.8307 48.4435C97.8148 48.0833 97.8592 47.7309 97.9639 47.3865C98.6337 47.5901 99.1632 47.6361 99.5525 47.5246C99.9476 47.3938 100.224 47.0701 100.381 46.5535L103.994 34.6706L95.3704 45.5005C94.9413 46.0181 94.4718 46.3248 93.9618 46.4206C93.4577 46.4973 92.8517 46.428 92.1437 46.2127L90.6754 30.6215L87.0627 42.5044C86.9056 43.0211 86.9739 43.4495 87.2677 43.7896C87.5864 44.1165 88.1284 44.3962 88.8939 44.6289C88.7891 44.9734 88.6299 45.2908 88.4162 45.5812C88.2025 45.8716 87.9651 46.1025 87.7039 46.2739L81.7337 44.4588C81.6122 44.171 81.5435 43.847 81.5275 43.4868C81.5116 43.1266 81.556 42.7743 81.6608 42.4299C82.3688 42.6451 82.9174 42.697 83.3067 42.5854C83.7018 42.4546 83.9779 42.131 84.135 41.6143L88.2364 28.124C88.3935 27.6074 88.3347 27.1819 88.0601 26.8475C87.7855 26.5132 87.3133 26.2442 86.6436 26.0406C86.7425 25.7153 86.8988 25.4074 87.1125 25.1171C87.3262 24.8267 87.5732 24.5987 87.8535 24.433L92.3598 25.8031C93.2592 26.0765 93.936 26.4286 94.3904 26.8594C94.8505 27.2711 95.1269 27.909 95.2195 28.7733L95.9844 37.1898L96.0504 41.098L98.2232 37.8704L104.702 29.5555L111.246 31.5451Z" fill="#1D3354"/>
<path d="M125.407 53.4832C125.148 54.0902 124.537 55.1126 123.575 56.5503C122.621 57.9697 121.927 58.8583 121.491 59.216C121.228 59.0168 120.905 58.7047 120.521 58.2798L107.747 52.8252C107.559 52.0928 107.595 51.4231 107.854 50.8161C108.48 51.0831 108.987 51.1691 109.375 51.074C109.764 50.979 110.068 50.674 110.288 50.1589L115.813 37.2192C116.025 36.7226 116.031 36.3011 115.831 35.9547C115.649 35.6162 115.246 35.3134 114.621 35.0464C114.88 34.4394 115.339 33.9503 115.997 33.5791L126.702 38.1501C127.078 38.1365 127.484 38.1793 127.92 38.2785C128.382 38.3672 128.788 38.4861 129.137 38.6354C129.185 39.2866 129.166 40.148 129.078 41.2195C129.008 42.299 128.883 43.0502 128.703 43.4733C128.395 43.5813 127.928 43.6319 127.3 43.6248C126.673 43.6178 126.15 43.5686 125.732 43.4772C125.784 42.6946 125.658 41.945 125.355 41.2284C125.052 40.5119 124.56 40.0083 123.88 39.7177L120.762 38.3865L118.276 44.208L120.263 45.0562C121.459 45.5667 122.343 45.1506 122.916 43.8079C123.744 44.1613 124.406 44.6726 124.904 45.3416L122.712 50.4733C122.34 50.5316 121.936 50.5334 121.503 50.4789C121.078 50.4059 120.662 50.283 120.258 50.1102C120.556 49.4113 120.615 48.8164 120.433 48.3255C120.251 47.8347 119.893 47.4754 119.36 47.2476L117.346 46.3876L114.577 52.8713L117.916 54.2968C118.688 54.6266 119.497 54.5914 120.342 54.1911C121.195 53.7724 121.899 53.1163 122.455 52.2227L125.407 53.4832Z" fill="#1D3354"/>
<path d="M195.56 65.6678C195.703 66.2511 195.67 66.8979 195.463 67.6082C194.791 67.412 194.232 67.3634 193.786 67.4624C193.365 67.5478 193.015 67.8205 192.735 68.2804L185.254 80.4097C184.472 81.6606 183.691 82.5159 182.911 82.9756C182.15 83.4409 181.299 83.5362 180.358 83.2615L178.746 82.7905L178.805 72.7441L178.918 68.1829L176.752 72.1758L173.735 77.0454C172.942 78.3348 172.187 79.2081 171.47 79.6654C170.753 80.1228 169.924 80.2141 168.984 79.9393L167.429 79.4851L167.336 60.8623C167.334 60.2991 167.226 59.8823 167.013 59.6118C166.801 59.3413 166.378 59.1136 165.744 58.9285C165.957 58.199 166.278 57.6363 166.706 57.2405L174.481 59.5113C174.617 60.2594 174.603 60.9118 174.441 61.4685C173.769 61.2723 173.274 61.2529 172.958 61.4104C172.641 61.5678 172.426 61.8386 172.314 62.2225L172.074 72.2472L171.845 74.7432L177.651 65.0313C178.04 64.2698 178.486 63.6708 178.988 63.2342C179.51 62.8032 180.049 62.669 180.606 62.8316L183.63 63.7147L183.276 75.5189L183.186 78.1805L184.589 75.8398L189.142 68.1687C189.261 67.9743 189.346 67.7908 189.396 67.618C189.542 67.1188 189.475 66.672 189.194 66.2775C188.919 65.8638 188.474 65.5672 187.86 65.3878C188.073 64.6583 188.384 64.0928 188.793 63.6914L195.56 65.6678Z" fill="#1D3354"/>
<path d="M210.045 81.9922C209.955 82.6461 209.636 83.7933 209.088 85.434C208.542 87.0548 208.107 88.0953 207.781 88.5552C207.475 88.4324 207.081 88.2168 206.598 87.9083L192.837 86.0186C192.463 85.3616 192.321 84.7062 192.411 84.0523C193.085 84.1448 193.596 84.094 193.946 83.8997C194.296 83.7055 194.509 83.331 194.585 82.7762L196.499 68.837C196.572 68.302 196.467 67.8939 196.183 67.6126C195.918 67.334 195.449 67.1484 194.775 67.0559C194.865 66.4021 195.179 65.8092 195.716 65.2774L207.248 66.8609C207.606 66.7487 208.009 66.6829 208.456 66.6635C208.925 66.627 209.348 66.6346 209.725 66.6863C209.943 67.3017 210.151 68.1378 210.349 69.1946C210.567 70.2541 210.645 71.0117 210.582 71.4674C210.314 71.6527 209.877 71.8248 209.27 71.9836C208.662 72.1425 208.145 72.233 207.718 72.2551C207.561 71.4866 207.242 70.7968 206.761 70.1856C206.28 69.5745 205.672 69.2185 204.939 69.1179L201.581 68.6567L200.72 74.9278L202.86 75.2217C204.147 75.3985 204.891 74.7638 205.089 73.3173C205.981 73.4398 206.755 73.758 207.411 74.2721L206.652 79.8002C206.308 79.9548 205.919 80.063 205.487 80.1247C205.057 80.1666 204.624 80.1577 204.188 80.0978C204.292 79.3449 204.191 78.7557 203.886 78.3302C203.581 77.9048 203.141 77.6526 202.567 77.5737L200.397 77.2758L199.438 84.2602L203.034 84.7541C203.866 84.8684 204.637 84.6209 205.347 84.0118C206.059 83.3828 206.565 82.5641 206.865 81.5555L210.045 81.9922Z" fill="#1D3354"/>
<path d="M213.855 88.5001C213.635 88.2601 213.465 87.9701 213.345 87.6301C213.225 87.2901 213.165 86.9401 213.165 86.5801C213.845 86.5801 214.325 86.4701 214.605 86.2501C214.885 86.0301 215.025 85.6401 215.025 85.0801V70.9801C215.025 70.4201 214.885 70.0301 214.605 69.8101C214.325 69.5701 213.845 69.4501 213.165 69.4501C213.165 69.0901 213.225 68.7501 213.345 68.4301C213.465 68.0901 213.635 67.8001 213.855 67.5601H221.265C221.705 68.0201 221.925 68.6501 221.925 69.4501C221.245 69.4501 220.745 69.5701 220.425 69.8101C220.105 70.0501 219.945 70.4401 219.945 70.9801V85.9501H221.055C222.515 85.9501 223.595 85.4701 224.295 84.5101C225.015 83.5501 225.375 82.2001 225.375 80.4601H227.475C227.815 80.7201 228.085 81.2801 228.285 82.1401C228.485 83.0001 228.585 83.8401 228.585 84.6601C228.585 85.9201 228.365 86.8801 227.925 87.5401C227.485 88.1801 226.765 88.5001 225.765 88.5001H213.855Z" fill="#1D3354"/>
<path d="M241.878 72.3314C241.5 71.0332 240.975 70.0303 240.302 69.3227C239.649 68.6122 238.897 68.321 238.046 68.4492C236.84 68.6311 235.967 69.3492 235.428 70.6036C234.886 71.8382 234.794 73.6421 235.152 76.0153C235.584 78.8828 236.454 80.8957 237.761 82.0537C239.069 83.2118 240.602 83.6581 242.363 83.3928C243.213 83.2645 243.941 82.993 244.545 82.5782C245.15 82.1634 245.558 81.7176 245.77 81.2407C246.034 81.383 246.272 81.6201 246.484 81.9522C246.696 82.2844 246.824 82.5988 246.869 82.8954C246.943 83.3898 246.764 83.9428 246.33 84.5543C245.916 85.1628 245.263 85.7264 244.37 86.2453C243.475 86.7444 242.404 87.0879 241.158 87.2757C239.418 87.5381 237.764 87.3727 236.199 86.7795C234.652 86.1834 233.33 85.1287 232.232 83.6154C231.135 82.1022 230.41 80.1788 230.058 77.8451C229.715 75.5708 229.81 73.5845 230.343 71.8861C230.873 70.1679 231.77 68.8089 233.035 67.8092C234.317 66.7866 235.887 66.1352 237.746 65.8549C238.181 65.7894 238.685 65.7741 239.256 65.8093C239.828 65.8445 240.336 65.9297 240.782 66.0648C241.057 65.8816 241.472 65.6776 242.024 65.4527C242.577 65.2278 243.01 65.0816 243.323 65.0141C244.109 66.3318 244.744 68.6024 245.23 71.826L241.878 72.3314Z" fill="#1D3354"/>
<path d="M260.103 82.4957C258.286 83.1173 256.573 83.2385 254.964 82.8592C253.367 82.4545 251.952 81.5961 250.721 80.2841C249.49 78.972 248.525 77.2942 247.826 75.2505C247.094 73.1122 246.825 71.1537 247.02 69.3749C247.208 67.5772 247.815 66.0481 248.843 64.7876C249.889 63.5206 251.292 62.586 253.052 61.9838C254.868 61.3621 256.584 61.2504 258.2 61.6486C259.816 62.0468 261.24 62.902 262.471 64.214C263.715 65.5007 264.689 67.1753 265.395 69.2379C266.121 71.3572 266.38 73.319 266.173 75.1232C265.978 76.902 265.358 78.4249 264.312 79.6919C263.266 80.9588 261.863 81.8934 260.103 82.4957ZM259.394 80.4236C260.434 80.0675 261.073 79.1832 261.308 77.7709C261.562 76.3522 261.152 74.0722 260.077 70.931C259.054 67.9413 258.035 65.9539 257.022 64.969C256.009 63.9841 254.953 63.6795 253.856 64.055C252.815 64.4112 252.167 65.2987 251.913 66.7174C251.677 68.1297 252.094 70.397 253.163 73.5192C254.186 76.509 255.207 78.5058 256.227 79.5096C257.26 80.4881 258.315 80.7927 259.394 80.4236Z" fill="#1D3354"/>
<path d="M283.557 46.4978C283.871 46.5868 284.167 46.7445 284.448 46.9711C284.728 47.1976 284.958 47.4557 285.136 47.7451C284.557 48.1018 284.186 48.4714 284.022 48.8541C283.876 49.2263 283.944 49.6422 284.227 50.102L291.622 62.1072C291.916 62.584 292.248 62.8373 292.619 62.8673C293.007 62.8868 293.507 62.7077 294.12 62.3301C294.309 62.6366 294.442 62.9661 294.518 63.3185C294.594 63.6709 294.601 64.007 294.54 64.3267L288.205 68.2288C287.909 68.1294 287.621 67.9664 287.34 67.7398C287.06 67.5133 286.825 67.2467 286.636 66.9402C287.232 66.5731 287.617 66.2067 287.791 65.8411C287.955 65.4584 287.895 65.0372 287.612 64.5774L281.098 54.0027L283.506 67.6354C283.609 68.2996 283.528 68.8545 283.263 69.3001C282.986 69.7287 282.533 70.137 281.903 70.5251L269.246 61.3033L275.76 71.878C276.043 72.3378 276.41 72.5702 276.859 72.5753C277.315 72.5528 277.884 72.3318 278.565 71.9122C278.753 72.2187 278.886 72.5482 278.962 72.9006C279.038 73.253 279.054 73.5839 279.01 73.8931L273.697 77.1658C273.401 77.0663 273.112 76.9033 272.832 76.6768C272.551 76.4502 272.317 76.1837 272.128 75.8772C272.758 75.4891 273.16 75.1122 273.334 74.7466C273.498 74.3639 273.438 73.9427 273.155 73.4829L265.76 61.4778C265.476 61.018 265.119 60.7804 264.686 60.7648C264.254 60.7493 263.74 60.9251 263.144 61.2922C262.965 61.0027 262.838 60.6818 262.762 60.3294C262.686 59.9769 262.678 59.6409 262.74 59.3211L266.75 56.8509C267.55 56.3579 268.262 56.0837 268.886 56.0284C269.499 55.9561 270.16 56.1713 270.869 56.6742L277.684 61.673L280.656 64.211L279.676 60.4458L277.734 50.0852L283.557 46.4978Z" fill="#1D3354"/>
<path d="M307.786 47.0529C308.139 47.6106 308.635 48.6932 309.274 50.3008C309.902 51.8915 310.24 52.9676 310.288 53.5291C309.975 53.6326 309.534 53.7221 308.966 53.7974L297.23 61.2262C296.52 60.9652 295.989 60.5559 295.636 59.9982C296.211 59.6345 296.569 59.2657 296.711 58.8918C296.853 58.5179 296.774 58.0943 296.475 57.6211L288.95 45.7325C288.661 45.2763 288.317 45.0323 287.918 45.0006C287.537 44.9583 287.058 45.119 286.484 45.4827C286.131 44.925 285.988 44.2696 286.056 43.5166L295.891 37.2912C296.093 36.9742 296.358 36.6642 296.687 36.3613C297.023 36.0308 297.351 35.7639 297.672 35.5607C298.236 35.8903 298.934 36.3951 299.767 37.0751C300.616 37.7445 301.164 38.2735 301.41 38.6622C301.325 38.9764 301.102 39.39 300.74 39.903C300.378 40.416 300.041 40.8186 299.729 41.1108C299.114 40.6246 298.425 40.3031 297.663 40.1464C296.901 39.9896 296.207 40.1091 295.582 40.5049L292.718 42.3179L296.103 47.6665L297.928 46.5113C299.027 45.816 299.186 44.8516 298.405 43.6179C299.165 43.1366 299.962 42.8808 300.795 42.8506L303.779 47.5655C303.616 47.9056 303.389 48.2387 303.098 48.5647C302.797 48.8738 302.46 49.1461 302.088 49.3814C301.682 48.7392 301.225 48.3539 300.717 48.2253C300.21 48.0968 299.711 48.1876 299.221 48.4978L297.371 49.6691L301.141 55.6261L304.208 53.6846C304.918 53.2354 305.348 52.5492 305.497 51.6261C305.636 50.6862 305.495 49.734 305.074 48.7697L307.786 47.0529Z" fill="#1D3354"/>
<path d="M374.651 20.7902C374.944 21.3146 375.084 21.9467 375.074 22.6866C374.374 22.6764 373.822 22.7784 373.419 22.9925C373.036 23.1869 372.771 23.5431 372.623 24.061L368.643 37.7444C368.222 39.1584 367.697 40.1908 367.068 40.8417C366.458 41.4929 365.663 41.8113 364.684 41.797L363.004 41.7725L360.385 32.0732L359.279 27.6466L358.255 32.0721L356.644 37.5692C356.223 39.0232 355.728 40.0661 355.159 40.6979C354.589 41.3296 353.815 41.6383 352.835 41.624L351.215 41.6004L346.166 23.6748C346.014 23.1325 345.799 22.7594 345.522 22.5553C345.245 22.3512 344.777 22.2444 344.117 22.2347C344.128 21.4748 344.287 20.8471 344.594 20.3515L352.694 20.4697C353.024 21.1546 353.184 21.787 353.176 22.367C352.476 22.3568 351.994 22.4697 351.731 22.7059C351.467 22.9421 351.333 23.2602 351.327 23.6601L353.765 33.3867L354.209 35.8535L357.219 24.9463C357.391 24.1087 357.661 23.4125 358.029 22.8579C358.417 22.3035 358.901 22.0305 359.481 22.039L362.631 22.0849L365.434 33.5571L366.056 36.1464L366.785 33.5168L369.13 24.9101C369.194 24.691 369.227 24.4915 369.229 24.3115C369.237 23.7915 369.053 23.3788 368.677 23.0733C368.302 22.7478 367.794 22.5804 367.154 22.571C367.165 21.8111 367.315 21.1832 367.602 20.6873L374.651 20.7902Z" fill="#1D3354"/>
<path d="M391.861 39.3417C391.737 39.9899 391.357 41.1183 390.721 42.7272C390.089 44.3164 389.598 45.332 389.249 45.7738C388.949 45.6347 388.567 45.3982 388.102 45.0643L374.462 42.4387C374.124 41.7626 374.017 41.1004 374.142 40.4523C374.81 40.5809 375.324 40.5576 375.683 40.3824C376.043 40.2072 376.275 39.8446 376.381 39.2947L379.041 25.4784C379.143 24.9481 379.06 24.5349 378.791 24.2388C378.541 23.9464 378.083 23.7359 377.415 23.6074C377.54 22.9593 377.885 22.3841 378.45 21.8819L389.88 24.0821C390.244 23.9893 390.65 23.9452 391.097 23.9498C391.568 23.9385 391.99 23.9688 392.363 24.0407C392.548 24.6669 392.711 25.513 392.852 26.5789C393.013 27.6485 393.049 28.4092 392.962 28.8609C392.685 29.0316 392.239 29.1799 391.624 29.306C391.009 29.432 390.488 29.4946 390.061 29.4938C389.945 28.718 389.663 28.012 389.216 27.3759C388.768 26.7398 388.181 26.3518 387.454 26.2119L384.125 25.5711L382.928 31.787L385.05 32.1953C386.326 32.441 387.102 31.847 387.378 30.4134C388.262 30.5835 389.018 30.9428 389.645 31.4913L388.591 36.9707C388.239 37.1066 387.845 37.1938 387.41 37.2323C386.979 37.2511 386.547 37.2189 386.115 37.1357C386.259 36.3894 386.19 35.7957 385.908 35.3545C385.626 34.9133 385.201 34.6379 384.631 34.5282L382.48 34.1143L381.148 41.0372L384.712 41.7233C385.537 41.8821 386.32 41.6764 387.061 41.1062C387.806 40.5164 388.356 39.726 388.709 38.735L391.861 39.3417Z" fill="#1D3354"/>
<path d="M392.048 46.0297C391.907 45.7364 391.828 45.4096 391.811 45.0495C391.794 44.6893 391.838 44.3369 391.942 43.9922C392.593 44.1886 393.084 44.2219 393.416 44.0921C393.748 43.9624 393.994 43.6294 394.156 43.0933L398.228 29.5941C398.39 29.0579 398.368 28.6441 398.164 28.3526C397.965 28.042 397.54 27.7885 396.889 27.5921C396.993 27.2474 397.149 26.9392 397.356 26.6675C397.569 26.3767 397.816 26.1481 398.095 25.9819L405.19 28.1218C405.478 28.6893 405.507 29.356 405.276 30.1219C404.625 29.9255 404.111 29.896 403.736 30.0334C403.36 30.1707 403.094 30.4979 402.938 31.0149L398.615 45.3471L399.678 45.6676C401.076 46.0893 402.248 45.9416 403.196 45.2247C404.162 44.5135 404.897 43.325 405.399 41.6591L407.41 42.2656C407.66 42.6127 407.757 43.2268 407.7 44.1079C407.643 44.989 407.496 45.8221 407.259 46.6072C406.896 47.8135 406.408 48.6691 405.796 49.1739C405.19 49.6595 404.408 49.758 403.451 49.4692L392.048 46.0297Z" fill="#1D3354"/>
<path d="M423.414 41.7688C423.738 40.4561 423.786 39.3249 423.558 38.3754C423.349 37.4331 422.844 36.8044 422.044 36.4892C420.909 36.042 419.794 36.2261 418.699 37.0415C417.611 37.8382 416.627 39.3531 415.748 41.5861C414.685 44.2842 414.429 46.462 414.98 48.1192C415.53 49.7765 416.634 50.9313 418.29 51.5837C419.09 51.899 419.856 52.0286 420.587 51.9728C421.319 51.917 421.895 51.7357 422.317 51.429C422.474 51.6844 422.562 52.0089 422.578 52.4025C422.595 52.7961 422.549 53.1325 422.439 53.4116C422.256 53.8768 421.823 54.2653 421.141 54.5771C420.478 54.8963 419.63 55.0567 418.598 55.0584C417.573 55.0415 416.474 54.8021 415.302 54.3403C413.664 53.6952 412.317 52.7236 411.259 51.4255C410.22 50.1348 409.604 48.5596 409.412 46.6999C409.221 44.8402 409.557 42.8125 410.422 40.6167C411.265 38.4768 412.343 36.8054 413.655 35.6027C414.975 34.3813 416.432 33.655 418.028 33.4239C419.65 33.1814 421.335 33.4047 423.084 34.0938C423.494 34.2551 423.937 34.4941 424.414 34.811C424.891 35.128 425.288 35.4564 425.606 35.7964C425.936 35.7761 426.397 35.8072 426.988 35.8895C427.579 35.9718 428.027 36.0623 428.332 36.161C428.351 37.6948 427.763 39.9782 426.568 43.0113L423.414 41.7688Z" fill="#1D3354"/>
<path d="M430.685 61.1274C428.957 60.2903 427.655 59.1705 426.779 57.7682C425.929 56.3565 425.529 54.7514 425.578 52.9529C425.627 51.1543 426.123 49.2831 427.065 47.3392C428.05 45.3054 429.238 43.7251 430.628 42.5986C432.027 41.4541 433.535 40.7957 435.152 40.6234C436.787 40.4599 438.441 40.7836 440.115 41.5946C441.843 42.4317 443.141 43.5605 444.008 44.9808C444.876 46.4012 445.285 48.0106 445.236 49.8092C445.213 51.5985 444.727 53.474 443.776 55.4359C442.8 57.4518 441.603 59.0276 440.186 60.1634C438.796 61.29 437.283 61.935 435.648 62.0986C434.013 62.2621 432.359 61.9384 430.685 61.1274ZM431.64 59.1565C432.63 59.6361 433.705 59.4572 434.867 58.6198C436.046 57.7911 437.36 55.8828 438.807 52.895C440.185 50.0512 440.86 47.9228 440.834 46.5098C440.807 45.0968 440.272 44.1375 439.228 43.6317C438.238 43.1521 437.154 43.3266 435.974 44.1554C434.813 44.9928 433.513 46.8964 432.074 49.8662C430.696 52.71 430.016 54.8474 430.034 56.2784C430.079 57.7001 430.614 58.6595 431.64 59.1565Z" fill="#1D3354"/>
<path d="M473.871 57.6609C473.978 57.9684 474.019 58.302 473.995 58.6617C473.97 59.0214 473.891 59.3574 473.756 59.6696C473.132 59.4003 472.616 59.3084 472.209 59.3942C471.82 59.4878 471.518 59.7825 471.304 60.2784L465.72 73.2253C465.498 73.7395 465.481 74.157 465.67 74.4778C465.876 74.8066 466.31 75.1135 466.971 75.3987C466.829 75.7293 466.635 76.0269 466.39 76.2915C466.145 76.5562 465.874 76.7552 465.577 76.8884L458.746 73.9416C458.657 73.6421 458.625 73.3124 458.65 72.9527C458.674 72.593 458.758 72.2478 458.9 71.9173C459.543 72.1945 460.064 72.2995 460.463 72.2321C460.871 72.1464 461.181 71.8556 461.395 71.3598L466.314 59.9555L456.534 69.753C456.05 70.2194 455.549 70.4716 455.031 70.5098C454.522 70.5296 453.927 70.393 453.248 70.0999L453.533 54.4422L448.613 65.8465C448.4 66.3423 448.42 66.7757 448.673 67.1466C448.954 67.507 449.461 67.8457 450.196 68.1625C450.053 68.4931 449.859 68.7907 449.614 69.0554C449.37 69.32 449.108 69.5229 448.829 69.6641L443.099 67.1926C443.011 66.893 442.979 66.5634 443.003 66.2037C443.028 65.8439 443.111 65.4988 443.254 65.1682C443.933 65.4613 444.473 65.5742 444.872 65.5069C445.279 65.4211 445.59 65.1304 445.804 64.6345L451.388 51.6876C451.602 51.1918 451.591 50.7624 451.356 50.3994C451.12 50.0365 450.681 49.7164 450.038 49.4391C450.173 49.1269 450.363 48.8385 450.608 48.5738C450.853 48.3092 451.124 48.1102 451.421 47.977L455.745 49.8425C456.609 50.2148 457.242 50.6404 457.645 51.1193C458.056 51.5798 458.26 52.2447 458.255 53.1139L458.074 61.5631L457.702 65.4542L460.222 62.4899L467.59 54.9517L473.871 57.6609Z" fill="#1D3354"/>
<path d="M487.423 77.1179C487.227 77.7481 486.723 78.8273 485.913 80.3555C485.108 81.8645 484.507 82.8191 484.11 83.2193C483.829 83.0479 483.475 82.7703 483.05 82.3866L469.787 78.2598C469.526 77.5502 469.494 76.8803 469.69 76.2501C470.339 76.4522 470.852 76.4861 471.229 76.3521C471.606 76.218 471.878 75.8836 472.044 75.3489L476.224 61.9142C476.385 61.3986 476.348 60.9787 476.114 60.6544C475.898 60.3361 475.466 60.076 474.817 59.8739C475.013 59.2437 475.42 58.7105 476.037 58.2743L487.152 61.7326C487.524 61.6809 487.932 61.6822 488.376 61.7365C488.845 61.7777 489.261 61.8547 489.623 61.9676C489.738 62.6106 489.805 63.4695 489.827 64.5445C489.868 65.6254 489.82 66.3854 489.683 66.8247C489.389 66.9634 488.929 67.0612 488.304 67.1181C487.679 67.1749 487.154 67.1791 486.729 67.1307C486.7 66.3469 486.499 65.614 486.125 64.932C485.75 64.25 485.21 63.7991 484.503 63.5792L481.267 62.572L479.386 68.6162L481.448 69.2579C482.69 69.6442 483.527 69.1402 483.961 67.7462C484.82 68.0136 485.531 68.4547 486.094 69.0697L484.436 74.3977C484.071 74.4936 483.67 74.5365 483.234 74.5263C482.803 74.497 482.377 74.4169 481.957 74.2862C482.183 73.5605 482.181 72.9628 481.95 72.493C481.719 72.0232 481.327 71.7021 480.773 71.5298L478.682 70.8791L476.587 77.6108L480.053 78.6893C480.855 78.9389 481.656 78.8216 482.456 78.3374C483.262 77.8341 483.896 77.1097 484.358 76.1642L487.423 77.1179Z" fill="#1D3354"/>
<path d="M557.257 63.8831C557.636 64.349 557.884 64.9472 558.001 65.6779C557.31 65.7888 556.784 65.9846 556.424 66.2652C556.081 66.5229 555.881 66.9195 555.825 67.4551L554.27 81.6205C554.1 83.0859 553.762 84.1936 553.254 84.9435C552.766 85.6902 552.038 86.1412 551.071 86.2965L549.412 86.5627L545.156 77.4621L543.302 73.2932L543.058 77.8292L542.422 83.5219C542.258 85.0268 541.951 86.1396 541.499 86.8603C541.048 87.5809 540.338 88.0189 539.37 88.1742L537.771 88.4309L529.7 71.6477C529.456 71.1399 529.18 70.8094 528.872 70.6563C528.564 70.5032 528.084 70.479 527.432 70.5835C527.312 69.8331 527.36 69.1873 527.577 68.6461L535.575 67.3627C536.018 67.9802 536.286 68.5753 536.378 69.148C535.687 69.2589 535.232 69.4534 535.013 69.7316C534.794 70.0098 534.717 70.3463 534.78 70.7413L538.863 79.9L539.727 82.2529L540.806 70.9897C540.831 70.1349 540.976 69.4026 541.243 68.7926C541.53 68.1795 541.959 67.8269 542.532 67.735L545.642 67.2359L550.386 78.0509L551.446 80.4937L551.709 77.7778L552.532 68.8952C552.556 68.6684 552.554 68.4662 552.526 68.2885C552.443 67.775 552.191 67.4003 551.768 67.1643C551.342 66.9086 550.813 66.8314 550.181 66.9328C550.061 66.1824 550.099 65.5382 550.297 65.0001L557.257 63.8831Z" fill="#1D3354"/>
<path d="M576.875 70.7646C577.122 71.3764 577.417 72.5302 577.758 74.226C578.092 75.9033 578.233 77.0225 578.179 77.5835C577.853 77.6294 577.403 77.6388 576.831 77.6115L563.957 82.8245C563.305 82.441 562.855 81.9434 562.608 81.3316C563.238 81.0764 563.656 80.7775 563.863 80.435C564.069 80.0924 564.068 79.6616 563.857 79.1425L558.577 66.1011C558.374 65.6005 558.08 65.2991 557.693 65.1967C557.325 65.0869 556.826 65.1595 556.195 65.4147C555.948 64.803 555.924 64.1327 556.125 63.4039L566.915 59.0354C567.17 58.7594 567.486 58.5018 567.864 58.2626C568.253 57.9972 568.623 57.7933 568.976 57.6506C569.471 58.0756 570.068 58.6971 570.766 59.5149C571.483 60.3252 571.927 60.9436 572.1 61.37C571.96 61.6639 571.666 62.031 571.219 62.4711C570.771 62.9113 570.368 63.2472 570.008 63.479C569.49 62.8907 568.87 62.4514 568.148 62.161C567.426 61.8706 566.722 61.8643 566.036 62.1421L562.894 63.4144L565.27 69.2816L567.272 68.471C568.477 67.9831 568.805 67.0625 568.257 65.7092C569.092 65.3714 569.921 65.2621 570.746 65.3812L572.841 70.5533C572.619 70.8587 572.336 71.1459 571.992 71.4148C571.64 71.6651 571.26 71.8728 570.852 72.0379C570.567 71.3335 570.186 70.8727 569.71 70.6556C569.234 70.4385 568.727 70.4388 568.189 70.6565L566.159 71.4784L568.805 78.013L572.17 76.6507C572.948 76.3354 573.494 75.737 573.806 74.8555C574.11 73.9554 574.141 72.9934 573.899 71.9694L576.875 70.7646Z" fill="#1D3354"/>
<path d="M583.49 74.3115C583.177 74.2216 582.881 74.0629 582.601 73.8355C582.321 73.6081 582.087 73.3409 581.899 73.0338C582.479 72.6789 582.831 72.3346 582.955 72.0008C583.08 71.667 582.995 71.2613 582.703 70.7836L575.345 58.7558C575.053 58.2781 574.73 58.0185 574.376 57.977C574.012 57.9184 573.54 58.0665 572.96 58.4214C572.772 58.1143 572.646 57.7929 572.581 57.4573C572.506 57.1047 572.5 56.7686 572.562 56.449L578.883 52.5821C579.499 52.7448 580.015 53.1674 580.432 53.8499C579.852 54.2047 579.488 54.568 579.341 54.9397C579.193 55.3115 579.26 55.7276 579.542 56.1883L587.354 68.9582L588.301 68.3789C589.546 67.617 590.217 66.6439 590.313 65.4597C590.427 64.2651 590.029 62.9256 589.121 61.4413L590.912 60.3454C591.338 60.3898 591.861 60.7266 592.48 61.3558C593.1 61.985 593.623 62.6494 594.051 63.3489C594.709 64.4237 595.022 65.3574 594.991 66.15C594.95 66.9256 594.503 67.5743 593.649 68.0962L583.49 74.3115Z" fill="#1D3354"/>
<path d="M599.699 46.0176C598.776 45.03 597.854 44.3726 596.934 44.0453C596.03 43.7064 595.228 43.7861 594.527 44.2846C593.533 44.9918 593.079 46.0267 593.164 47.3892C593.238 48.7355 593.971 50.3865 595.362 52.3423C597.043 54.7054 598.728 56.1083 600.418 56.5511C602.107 56.9938 603.677 56.6993 605.127 55.6676C605.828 55.1691 606.355 54.5982 606.707 53.9549C607.059 53.3116 607.222 52.7295 607.195 52.2086C607.495 52.2162 607.815 52.3203 608.154 52.5209C608.493 52.7215 608.749 52.9441 608.923 53.1885C609.213 53.596 609.302 54.1704 609.192 54.9119C609.097 55.6417 608.769 56.4397 608.207 57.3058C607.633 58.1556 606.833 58.9457 605.806 59.676C604.372 60.6961 602.823 61.2953 601.158 61.4733C599.509 61.6398 597.853 61.2959 596.19 60.4417C594.527 59.5875 593.012 58.1988 591.644 56.2757C590.311 54.4015 589.498 52.5864 589.206 50.8305C588.903 49.0583 589.09 47.4405 589.767 45.9771C590.449 44.4858 591.556 43.1953 593.088 42.1056C593.446 41.8506 593.888 41.6097 594.414 41.3829C594.94 41.156 595.432 41.0024 595.89 40.9219C596.054 40.634 596.331 40.2648 596.723 39.8146C597.114 39.3643 597.434 39.0383 597.683 38.8365C598.979 39.6574 600.572 41.3962 602.461 44.0527L599.699 46.0176Z" fill="#1D3354"/>
<path d="M619.475 51.6599C617.745 52.493 616.059 52.817 614.416 52.6317C612.782 52.4197 611.276 51.7355 609.897 50.5791C608.519 49.4227 607.361 47.8715 606.424 45.9254C605.443 43.8893 604.943 41.9766 604.925 40.1873C604.898 38.3799 605.32 36.7894 606.19 35.4158C607.078 34.0334 608.36 32.9387 610.036 32.1316C611.765 31.2984 613.456 30.9834 615.108 31.1867C616.76 31.3901 618.275 32.0699 619.653 33.2263C621.041 34.3561 622.208 35.9029 623.154 37.867C624.126 39.8851 624.617 41.8021 624.626 43.6181C624.644 45.4075 624.209 46.9933 623.321 48.3756C622.433 49.758 621.151 50.8527 619.475 51.6599ZM618.525 49.6868C619.516 49.2095 620.044 48.2557 620.11 46.8254C620.194 45.3864 619.515 43.1714 618.075 40.1803C616.703 37.3333 615.456 35.4811 614.333 34.6237C613.209 33.7662 612.125 33.5892 611.08 34.0926C610.089 34.5699 609.552 35.5281 609.468 36.967C609.402 38.3973 610.085 40.599 611.517 43.5721C612.888 46.419 614.14 48.2802 615.272 49.1557C616.413 50.0045 617.498 50.1815 618.525 49.6868Z" fill="#1D3354"/>
<path d="M647.652 20.8654C647.919 21.0517 648.148 21.2977 648.339 21.6033C648.53 21.909 648.663 22.2277 648.737 22.5595C648.073 22.7078 647.602 22.9361 647.322 23.2444C647.062 23.5484 646.991 23.9639 647.109 24.4909L650.183 38.2518C650.305 38.7983 650.536 39.1463 650.877 39.2956C651.237 39.4405 651.769 39.4345 652.471 39.2776C652.55 39.6289 652.567 39.9836 652.524 40.3416C652.481 40.6995 652.379 41.0196 652.216 41.3018L644.955 42.9237C644.708 42.7331 644.488 42.4849 644.297 42.1793C644.106 41.8736 643.971 41.5451 643.893 41.1937C644.576 41.0411 645.059 40.8204 645.343 40.5316C645.623 40.2233 645.704 39.8056 645.586 39.2786L642.878 27.1573L640.707 40.8295C640.588 41.4913 640.33 41.9894 639.934 42.3239C639.533 42.6389 638.971 42.8771 638.249 43.0384L629.293 30.1918L632.001 42.3131C632.118 42.8401 632.389 43.1793 632.812 43.3307C633.25 43.4582 633.86 43.4347 634.641 43.2603C634.719 43.6117 634.737 43.9663 634.694 44.3243C634.651 44.6823 634.558 45.0002 634.415 45.278L628.325 46.6383C628.078 46.4477 627.858 46.1996 627.667 45.8939C627.476 45.5882 627.341 45.2597 627.262 44.9084C627.985 44.7471 628.488 44.522 628.772 44.2332C629.051 43.9248 629.132 43.5071 629.014 42.9801L625.94 29.2192C625.823 28.6922 625.562 28.3508 625.158 28.1951C624.755 28.0393 624.211 28.0378 623.528 28.1904C623.454 27.8585 623.438 27.5136 623.481 27.1556C623.524 26.7977 623.627 26.4776 623.79 26.1954L628.386 25.1686C629.304 24.9637 630.066 24.9369 630.674 25.088C631.277 25.2197 631.832 25.6389 632.338 26.3455L637.148 33.294L639.13 36.6629L639.432 32.7839L640.976 22.3565L647.652 20.8654Z" fill="#1D3354"/>
<path d="M669.712 35.0587C669.721 35.7186 669.579 36.9008 669.284 38.6054C668.989 40.2899 668.715 41.3841 668.462 41.8878C668.141 41.8126 667.719 41.6588 667.195 41.4264L653.307 41.6311C652.838 41.038 652.599 40.4114 652.589 39.7515C653.269 39.7415 653.767 39.6141 654.084 39.3694C654.4 39.1247 654.554 38.7224 654.546 38.1625L654.338 24.094C654.331 23.5541 654.165 23.1665 653.841 22.9312C653.538 22.6957 653.046 22.5829 652.366 22.5929C652.356 21.933 652.577 21.2997 653.028 20.6929L664.667 20.5214C665.005 20.3564 665.393 20.2307 665.832 20.1442C666.29 20.0375 666.709 19.9813 667.089 19.9757C667.398 20.5512 667.729 21.3464 668.084 22.3613C668.459 23.3759 668.65 24.1131 668.657 24.5731C668.42 24.7966 668.014 25.0326 667.437 25.2811C666.861 25.5296 666.363 25.697 665.945 25.7832C665.674 25.0471 665.254 24.4132 664.686 23.8815C664.119 23.3498 663.465 23.0894 662.725 23.1003L659.335 23.1503L659.428 29.4796L661.588 29.4478C662.888 29.4286 663.527 28.6891 663.506 27.2293C664.406 27.216 665.219 27.4141 665.945 27.8234L666.027 33.4028C665.71 33.6075 665.342 33.7729 664.924 33.8991C664.506 34.0053 664.076 34.0616 663.636 34.0681C663.625 33.3082 663.437 32.7409 663.071 32.3662C662.706 31.9916 662.233 31.8085 661.653 31.8171L659.463 31.8493L659.567 38.8986L663.197 38.8451C664.037 38.8327 664.761 38.472 665.371 37.7629C665.98 37.0339 666.357 36.1482 666.502 35.106L669.712 35.0587Z" fill="#1D3354"/>
<path d="M741.435 39.6914C741.521 40.2855 741.427 40.9263 741.153 41.6138C740.503 41.3547 739.951 41.2533 739.498 41.3097C739.071 41.3548 738.696 41.593 738.374 42.0243L729.777 53.3896C728.88 54.5607 728.021 55.3381 727.201 55.7217C726.399 56.1128 725.543 56.127 724.633 55.7643L723.072 55.1425L724.083 45.147L724.629 40.6171L722.093 44.3865L718.629 48.9482C717.717 50.1565 716.883 50.9543 716.125 51.3416C715.368 51.7289 714.535 51.7412 713.624 51.3785L712.119 50.7789L713.793 32.2312C713.844 31.6703 713.777 31.2452 713.59 30.9557C713.404 30.6663 713.005 30.3994 712.392 30.1552C712.673 29.4491 713.045 28.9194 713.509 28.5659L721.034 31.5638C721.098 32.3214 721.023 32.9696 720.808 33.5084C720.158 33.2493 719.668 33.1831 719.337 33.3098C719.007 33.4366 718.768 33.6857 718.62 34.0573L717.43 44.0141L716.966 46.4771L723.666 37.3595C724.125 36.6383 724.626 36.0843 725.168 35.6973C725.728 35.3177 726.278 35.2352 726.816 35.4499L729.743 36.6157L728.271 48.3333L727.93 50.9744L729.548 48.7772L734.808 41.5724C734.945 41.3902 735.047 41.2155 735.114 41.0483C735.306 40.5652 735.281 40.114 735.039 39.6947C734.805 39.2568 734.39 38.9194 733.796 38.6825C734.077 37.9765 734.44 37.443 734.885 37.0822L741.435 39.6914Z" fill="#1D3354"/>
<path d="M752.83 62.1801C752.529 62.7673 751.848 63.744 750.787 65.1103C749.735 66.4587 748.979 67.296 748.519 67.6221C748.271 67.4048 747.971 67.0706 747.618 66.6196L735.261 60.2765C735.125 59.5326 735.208 58.8671 735.51 58.2799C736.115 58.5905 736.614 58.7121 737.009 58.6447C737.403 58.5773 737.728 58.2945 737.984 57.7963L744.409 45.2792C744.656 44.7987 744.691 44.3787 744.516 44.0191C744.359 43.6686 743.978 43.338 743.373 43.0275C743.674 42.4403 744.167 41.9849 744.85 41.6612L755.205 46.9769C755.581 46.9898 755.983 47.0611 756.411 47.1909C756.865 47.312 757.262 47.4593 757.6 47.6328C757.602 48.2858 757.521 49.1437 757.358 50.2064C757.212 51.2782 757.035 52.0187 756.825 52.428C756.511 52.5141 756.041 52.5315 755.415 52.4801C754.79 52.4288 754.272 52.3428 753.862 52.2221C753.968 51.4451 753.896 50.6885 753.644 49.9523C753.393 49.2162 752.938 48.6791 752.279 48.3412L749.263 46.7931L746.373 52.4245L748.294 53.4109C749.451 54.0046 750.362 53.652 751.029 52.3531C751.83 52.7641 752.455 53.3208 752.903 54.0233L750.355 58.9875C749.979 59.0192 749.577 58.9926 749.148 58.9076C748.729 58.8047 748.324 58.6528 747.932 58.4519C748.279 57.7758 748.379 57.1865 748.233 56.684C748.086 56.1816 747.755 55.7979 747.239 55.533L745.29 54.5329L742.071 60.8049L745.3 62.4626C746.047 62.8462 746.857 62.8682 747.728 62.5286C748.608 62.1712 749.357 61.5664 749.974 60.7142L752.83 62.1801Z" fill="#1D3354"/>
<path d="M752.282 68.8813C752.176 68.5734 752.136 68.2397 752.162 67.88C752.188 67.5204 752.273 67.1756 752.417 66.8455C753.04 67.1171 753.524 67.208 753.869 67.1182C754.213 67.0283 754.497 66.7267 754.721 66.2133L760.353 53.2868C760.576 52.7734 760.604 52.36 760.435 52.0465C760.274 51.7146 759.882 51.4129 759.259 51.1413C759.402 50.8112 759.593 50.5235 759.831 50.278C760.077 50.0143 760.348 49.8163 760.646 49.6842L767.439 52.6438C767.659 53.2413 767.609 53.9067 767.289 54.6401C766.666 54.3685 766.16 54.2788 765.77 54.371C765.381 54.4633 765.079 54.7569 764.863 55.2519L758.884 68.976L759.901 69.4194C761.24 70.0025 762.422 69.9938 763.447 69.3933C764.491 68.8008 765.36 67.7069 766.055 66.1118L767.98 66.9505C768.188 67.3247 768.212 67.9459 768.052 68.8142C767.891 69.6825 767.648 70.4926 767.32 71.2443C766.817 72.3994 766.232 73.1917 765.565 73.621C764.906 74.032 764.118 74.0378 763.201 73.6384L752.282 68.8813Z" fill="#1D3354"/>
<path d="M785.161 66.5498C785.43 65.2247 785.43 64.0925 785.163 63.1533C784.914 62.2207 784.384 61.6137 783.571 61.3323C782.418 60.9331 781.312 61.1638 780.252 62.0243C779.198 62.866 778.279 64.4207 777.494 66.6886C776.545 69.429 776.38 71.6155 777 73.2482C777.62 74.881 778.771 75.9885 780.453 76.5709C781.266 76.8523 782.036 76.9498 782.765 76.8634C783.493 76.777 784.062 76.5717 784.47 76.2475C784.638 76.4961 784.739 76.8167 784.772 77.2092C784.805 77.6018 784.773 77.9398 784.675 78.2233C784.511 78.6958 784.095 79.1021 783.427 79.4422C782.778 79.7889 781.938 79.9847 780.906 80.0296C779.881 80.0557 778.774 79.8626 777.583 79.4503C775.92 78.8744 774.533 77.9602 773.421 76.7076C772.329 75.4616 771.648 73.9136 771.378 72.0635C771.109 70.2135 771.36 68.1735 772.132 65.9434C772.885 63.77 773.892 62.0549 775.152 60.7982C776.419 59.5226 777.845 58.7359 779.43 58.438C781.04 58.1278 782.733 58.2802 784.51 58.8954C784.926 59.0394 785.379 59.2597 785.869 59.5563C786.358 59.8529 786.769 60.1644 787.101 60.4909C787.43 60.4567 787.891 60.4684 788.485 60.5259C789.079 60.5834 789.531 60.655 789.84 60.7408C789.923 62.2724 789.431 64.5785 788.365 67.6591L785.161 66.5498Z" fill="#1D3354"/>
<path d="M795.194 84.4917C793.325 84.0512 791.811 83.2422 790.65 82.0645C789.513 80.872 788.773 79.3927 788.429 77.6267C788.084 75.8607 788.16 73.9264 788.656 71.824C789.174 69.6243 789.989 67.8232 791.1 66.4207C792.216 64.9988 793.544 64.0276 795.085 63.507C796.645 62.9911 798.33 62.9465 800.14 63.3731C802.009 63.8135 803.522 64.6323 804.678 65.8295C805.834 67.0266 806.584 68.5082 806.928 70.2742C807.296 72.0253 807.231 73.9618 806.73 76.0837C806.217 78.264 805.392 80.0628 804.257 81.4802C803.145 82.8826 801.81 83.8418 800.25 84.3578C798.69 84.8737 797.005 84.9183 795.194 84.4917ZM795.697 82.3601C796.767 82.6124 797.778 82.2033 798.729 81.1329C799.699 80.0671 800.565 77.9184 801.327 74.6869C802.052 71.6112 802.247 69.3867 801.913 68.0135C801.579 66.6403 800.848 65.8207 799.719 65.5546C798.648 65.3023 797.628 65.709 796.657 66.7748C795.706 67.8453 794.852 69.9865 794.095 73.1985C793.371 76.2742 793.173 78.5084 793.502 79.9011C793.855 81.2789 794.587 82.0986 795.697 82.3601Z" fill="#1D3354"/>
<path d="M835.331 68.1037C835.535 68.3577 835.685 68.6583 835.783 69.0054C835.88 69.3526 835.918 69.6958 835.895 70.0351C835.217 69.9903 834.7 70.0764 834.345 70.2935C834.01 70.5119 833.824 70.8905 833.789 71.4293L832.86 85.4987C832.823 86.0575 832.947 86.4565 833.232 86.6958C833.537 86.9364 834.048 87.0804 834.767 87.1279C834.743 87.4871 834.66 87.8324 834.518 88.1637C834.376 88.4951 834.187 88.7733 833.952 88.9982L826.528 88.5081C826.344 88.2555 826.204 87.9556 826.106 87.6084C826.009 87.2612 825.972 86.908 825.996 86.5488C826.694 86.5949 827.22 86.5194 827.574 86.3223C827.929 86.1052 828.125 85.7273 828.16 85.1884L828.978 72.7954L823.042 85.3015C822.741 85.903 822.354 86.3084 821.879 86.5175C821.405 86.7068 820.8 86.777 820.061 86.7283L815.089 71.8784L814.27 84.2714C814.235 84.8103 814.399 85.2119 814.762 85.4765C815.147 85.7223 815.738 85.8716 816.536 85.9243C816.513 86.2835 816.43 86.6288 816.288 86.9602C816.146 87.2915 815.967 87.5704 815.751 87.7967L809.525 87.3856C809.341 87.1329 809.201 86.833 809.103 86.4859C809.006 86.1387 808.969 85.7855 808.993 85.4263C809.731 85.475 810.277 85.4009 810.631 85.2037C810.986 84.9866 811.181 84.6087 811.217 84.0699L812.146 70.0005C812.181 69.4617 812.028 69.0607 811.684 68.7975C811.341 68.5343 810.82 68.3796 810.121 68.3335C810.144 67.9942 810.226 67.6589 810.368 67.3276C810.51 66.9962 810.699 66.718 810.934 66.4931L815.634 66.8033C816.572 66.8653 817.311 67.0544 817.852 67.3706C818.393 67.667 818.807 68.2255 819.094 69.0461L821.751 77.0686L822.703 80.8596L824.086 77.2227L828.506 67.6531L835.331 68.1037Z" fill="#1D3354"/>
<path d="M855.001 80.0945C855.085 80.7491 855.076 81.9399 854.975 83.6668C854.872 85.3739 854.723 86.4919 854.529 87.0209C854.201 86.9823 853.764 86.8771 853.218 86.7052L839.441 88.4732C838.908 87.9367 838.6 87.3411 838.516 86.6864C839.19 86.5999 839.671 86.4172 839.958 86.1384C840.244 85.8597 840.352 85.4425 840.281 84.8871L838.49 70.9315C838.421 70.3959 838.213 70.0295 837.865 69.8322C837.537 69.6323 837.036 69.5756 836.361 69.6622C836.277 69.0076 836.425 68.3534 836.805 67.6997L848.35 66.2181C848.667 66.0161 849.039 65.8475 849.465 65.7121C849.909 65.5544 850.319 65.4513 850.696 65.403C851.067 65.9401 851.486 66.6928 851.953 67.6612C852.44 68.6271 852.713 69.3382 852.771 69.7945C852.561 70.0432 852.184 70.3235 851.639 70.6354C851.095 70.9473 850.619 71.1696 850.213 71.3024C849.861 70.6015 849.372 70.0189 848.748 69.5546C848.124 69.0903 847.445 68.9052 846.711 68.9994L843.349 69.4309L844.154 75.7094L846.297 75.4345C847.586 75.269 848.138 74.4622 847.952 73.0141C848.845 72.8995 849.675 73.0047 850.443 73.3297L851.153 78.8643C850.861 79.1034 850.514 79.3092 850.113 79.4817C849.709 79.6343 849.289 79.7386 848.853 79.7946C848.756 79.0408 848.505 78.4984 848.099 78.1673C847.694 77.8362 847.203 77.7076 846.628 77.7814L844.456 78.0601L845.353 85.0528L848.954 84.5907C849.787 84.4838 850.467 84.0438 850.992 83.2705C851.516 82.4775 851.79 81.555 851.817 80.5031L855.001 80.0945Z" fill="#1D3354"/>
<path d="M910.529 33.9716C911.073 34.2263 911.557 34.657 911.98 35.2638C911.406 35.6644 911.018 36.0695 910.816 36.4788C910.619 36.8603 910.612 37.3043 910.795 37.8108L915.56 51.2411C916.044 52.6345 916.221 53.7792 916.091 54.6752C915.977 55.5598 915.518 56.2826 914.714 56.8435L913.337 57.8051L905.544 51.4638L902.061 48.5173L903.815 52.7075L905.72 58.1096C906.227 59.5358 906.435 60.6715 906.342 61.5168C906.249 62.3621 905.801 63.0653 904.997 63.6262L903.669 64.5534L889.098 52.9559C888.657 52.6047 888.265 52.4272 887.921 52.4235C887.577 52.4197 887.135 52.6068 886.593 52.9845C886.158 52.3613 885.921 51.7589 885.881 51.1772L892.522 46.5409C893.19 46.9039 893.69 47.3232 894.022 47.7988C893.448 48.1995 893.124 48.5726 893.048 48.9182C892.972 49.2638 893.048 49.6006 893.277 49.9286L900.939 56.3976L902.741 58.1401L898.81 47.5299C898.461 46.7495 898.273 46.0267 898.248 45.3615C898.239 44.6848 898.472 44.1804 898.948 43.8484L901.531 42.0455L910.509 49.718L912.527 51.4558L911.581 48.8961L908.456 40.5407C908.38 40.326 908.29 40.1448 908.187 39.9972C907.889 39.5708 907.499 39.3434 907.015 39.3149C906.521 39.27 906.011 39.4307 905.486 39.797C905.051 39.1738 904.805 38.5771 904.749 38.0068L910.529 33.9716Z" fill="#1D3354"/>
<path d="M934.942 39.9363C935.196 40.5456 935.501 41.6965 935.859 43.3889C936.209 45.0629 936.36 46.1807 936.312 46.7422C935.986 46.7913 935.537 46.805 934.965 46.7832L922.141 52.1205C921.486 51.7433 921.031 51.2501 920.778 50.6407C921.406 50.3794 921.821 50.0765 922.024 49.732C922.228 49.3875 922.222 48.9567 922.006 48.4397L916.6 35.4499C916.392 34.9513 916.095 34.6528 915.707 34.5541C915.338 34.4478 914.839 34.5253 914.212 34.7866C913.958 34.1773 913.928 33.5073 914.122 32.7766L924.869 28.3039C925.121 28.0255 925.435 27.7649 925.811 27.5219C926.197 27.2529 926.565 27.0453 926.916 26.8993C927.416 27.3195 928.019 27.9351 928.725 28.7461C929.449 29.5495 929.9 30.1635 930.076 30.5882C929.939 30.8835 929.649 31.2534 929.206 31.6979C928.763 32.1423 928.363 32.4822 928.006 32.7174C927.481 32.1341 926.857 31.7008 926.132 31.4174C925.408 31.1341 924.704 31.1346 924.021 31.4189L920.891 32.7216L923.323 38.5656L925.317 37.7356C926.518 37.2361 926.837 36.3123 926.276 34.9644C927.107 34.6186 927.936 34.5012 928.762 34.6123L930.906 39.7639C930.687 40.0715 930.407 40.3614 930.066 40.6336C929.716 40.8873 929.338 41.0987 928.932 41.2678C928.64 40.5661 928.255 40.109 927.777 39.8965C927.298 39.6841 926.791 39.6892 926.256 39.9121L924.234 40.7536L926.943 47.2624L930.294 45.8675C931.07 45.5448 931.609 44.9411 931.913 44.0566C932.208 43.1537 932.23 42.1914 931.978 41.1697L934.942 39.9363Z" fill="#1D3354"/>
<path d="M938.276 45.6245C938.008 45.4399 937.777 45.1954 937.584 44.891C937.391 44.5866 937.254 44.259 937.173 43.9081C937.836 43.7556 938.279 43.5408 938.502 43.2636C938.726 42.9864 938.775 42.5749 938.649 42.0292L935.487 28.2884C935.362 27.7426 935.138 27.394 934.815 27.2424C934.489 27.0713 933.994 27.062 933.331 27.2145C933.251 26.8636 933.233 26.5188 933.278 26.1801C933.319 25.8218 933.419 25.5011 933.58 25.2179L940.801 23.556C941.333 23.9057 941.689 24.4703 941.868 25.2499C941.206 25.4024 940.745 25.6315 940.487 25.9371C940.229 26.2428 940.161 26.6587 940.282 27.185L943.639 41.7736L944.721 41.5247C946.144 41.1973 947.089 40.4873 947.555 39.3948C948.042 38.2977 948.09 36.9014 947.7 35.2057L949.746 34.7348C950.136 34.9119 950.524 35.3971 950.912 36.1903C951.3 36.9835 951.586 37.7797 951.77 38.5788C952.052 39.8067 952.053 40.7916 951.772 41.5335C951.487 42.2559 950.857 42.7292 949.883 42.9535L938.276 45.6245Z" fill="#1D3354"/>
<path d="M964.139 27.2374C963.867 25.9129 963.424 24.8709 962.81 24.1114C962.217 23.3504 961.491 22.9995 960.633 23.0587C959.416 23.1427 958.488 23.788 957.849 24.9948C957.21 26.1817 956.972 27.9723 957.137 30.3666C957.337 33.2597 958.041 35.3361 959.251 36.5959C960.461 37.8556 961.953 38.4243 963.729 38.3018C964.587 38.2426 965.334 38.0307 965.971 37.666C966.607 37.3014 967.05 36.8899 967.299 36.4317C967.551 36.5948 967.769 36.8504 967.953 37.1985C968.137 37.5466 968.24 37.8703 968.261 38.1696C968.295 38.6684 968.071 39.2051 967.59 39.7796C967.128 40.3527 966.432 40.8619 965.5 41.307C964.567 41.7322 963.472 41.9882 962.215 42.0749C960.459 42.196 958.825 41.8978 957.312 41.1802C955.819 40.4612 954.586 39.3033 953.614 37.7064C952.642 36.1095 952.075 34.1339 951.912 31.7795C951.754 29.4849 952.009 27.5127 952.677 25.8628C953.344 24.193 954.348 22.9109 955.689 22.0164C957.05 21.1006 958.667 20.5781 960.543 20.4487C960.982 20.4184 961.485 20.4439 962.052 20.5251C962.619 20.6062 963.119 20.7321 963.551 20.9028C963.841 20.7425 964.27 20.5725 964.839 20.3929C965.408 20.2133 965.852 20.1026 966.17 20.0606C966.846 21.4373 967.296 23.7518 967.521 27.0041L964.139 27.2374Z" fill="#1D3354"/>
<path d="M978.641 42.3508C976.728 42.1819 975.113 41.5976 973.796 40.5978C972.501 39.5799 971.556 38.2215 970.964 36.5228C970.371 34.824 970.169 32.8989 970.359 30.7472C970.558 28.496 971.107 26.597 972.007 25.0501C972.908 23.4833 974.084 22.3323 975.535 21.5971C977.005 20.8636 978.666 20.5787 980.519 20.7423C982.432 20.9112 984.046 21.5055 985.361 22.5252C986.676 23.5449 987.63 24.9041 988.223 26.6029C988.838 28.2834 989.049 30.2095 988.857 32.3811C988.66 34.6124 988.101 36.5105 987.18 38.0755C986.28 39.6224 985.095 40.7626 983.625 41.4961C982.155 42.2296 980.493 42.5145 978.641 42.3508ZM978.833 40.1693C979.929 40.2661 980.871 39.7168 981.659 38.5216C982.467 37.328 983.017 35.0777 983.31 31.7706C983.588 28.6228 983.463 26.3933 982.937 25.0818C982.41 23.7704 981.569 23.0637 980.413 22.9616C979.318 22.8648 978.366 23.4132 977.558 24.6067C976.769 25.802 976.23 28.0433 975.94 31.3305C975.662 34.4782 975.785 36.7178 976.31 38.0491C976.857 39.3623 977.698 40.069 978.833 40.1693Z" fill="#1D3354"/>
<path d="M1017.62 28.369C1017.77 28.6552 1017.87 28.9779 1017.9 29.3368C1017.93 29.6958 1017.91 30.0402 1017.83 30.37C1017.17 30.2047 1016.64 30.1971 1016.25 30.3473C1015.89 30.5023 1015.64 30.8417 1015.5 31.3655L1012.08 45.0426C1011.94 45.5858 1011.99 46.0005 1012.23 46.2869C1012.49 46.5781 1012.96 46.8112 1013.66 46.9862C1013.57 47.3354 1013.43 47.6603 1013.23 47.9609C1013.03 48.2616 1012.8 48.5015 1012.53 48.6809L1005.31 46.8723C1005.17 46.5909 1005.09 46.2707 1005.05 45.9117C1005.02 45.5528 1005.05 45.1987 1005.14 44.8495C1005.81 45.0196 1006.35 45.0393 1006.73 44.9086C1007.12 44.7584 1007.38 44.4215 1007.51 43.8977L1010.53 31.8502L1002.45 43.0944C1002.05 43.6326 1001.6 43.9622 1001.09 44.0832C1000.59 44.1848 999.982 44.1457 999.264 43.9658L997.025 28.4665L994.006 40.5139C993.874 41.0378 993.964 41.4622 994.274 41.7874C994.609 42.098 995.164 42.3506 995.94 42.5451C995.852 42.8943 995.709 43.2192 995.51 43.5198C995.311 43.8204 995.085 44.0629 994.833 44.247L988.78 42.7302C988.644 42.4488 988.56 42.1286 988.526 41.7696C988.492 41.4106 988.519 41.0566 988.607 40.7074C989.324 40.8872 989.875 40.9118 990.258 40.781C990.646 40.6309 990.906 40.2939 991.037 39.7701L994.465 26.093C994.596 25.5692 994.516 25.1472 994.225 24.8269C993.935 24.5066 993.45 24.2613 992.771 24.0912C992.853 23.7614 992.994 23.4461 993.193 23.1455C993.392 22.8449 993.628 22.6049 993.899 22.4256L998.468 23.5705C999.38 23.799 1000.07 24.1171 1000.55 24.5248C1001.03 24.9132 1001.34 25.5367 1001.47 26.3953L1002.65 34.7635L1002.91 38.6636L1004.92 35.3323L1010.98 26.7063L1017.62 28.369Z" fill="#1D3354"/>
<path d="M1032.9 49.8398C1032.66 50.4562 1032.09 51.5011 1031.18 52.9744C1030.28 54.429 1029.62 55.3433 1029.2 55.7173C1028.93 55.5282 1028.6 55.2287 1028.2 54.8186L1015.22 49.8536C1015.01 49.1288 1015.02 48.4582 1015.25 47.8418C1015.89 48.0849 1016.4 48.1515 1016.78 48.0418C1017.17 47.932 1017.46 47.6156 1017.66 47.0926L1022.69 33.9522C1022.88 33.4479 1022.87 33.0265 1022.66 32.688C1022.47 32.3566 1022.05 32.0693 1021.42 31.8263C1021.65 31.2099 1022.09 30.7037 1022.74 30.3078L1033.61 34.4686C1033.98 34.4407 1034.39 34.468 1034.83 34.5506C1035.29 34.6216 1035.7 34.7251 1036.06 34.8609C1036.13 35.5098 1036.14 36.3714 1036.1 37.4455C1036.07 38.5268 1035.97 39.2823 1035.81 39.7119C1035.51 39.8315 1035.04 39.8998 1034.41 39.9166C1033.79 39.9334 1033.26 39.9041 1032.84 39.8287C1032.86 39.0447 1032.71 38.3004 1032.38 37.5959C1032.05 36.8914 1031.54 36.4069 1030.85 36.1424L1027.68 34.9306L1025.42 40.8423L1027.43 41.6145C1028.65 42.0792 1029.52 41.6297 1030.04 40.2662C1030.88 40.5879 1031.56 41.0736 1032.08 41.7232L1030.09 46.9345C1029.72 47.0069 1029.32 47.0241 1028.88 46.986C1028.45 46.9293 1028.03 46.8223 1027.62 46.665C1027.89 45.9552 1027.93 45.3585 1027.73 44.8749C1027.53 44.3914 1027.16 44.0459 1026.62 43.8386L1024.57 43.0558L1022.05 49.64L1025.44 50.9375C1026.23 51.2378 1027.03 51.1719 1027.86 50.7397C1028.7 50.2889 1029.38 49.6065 1029.9 48.6924L1032.9 49.8398Z" fill="#1D3354"/>
<path d="M1102.98 63.774C1103.1 64.3631 1103.04 65.0077 1102.8 65.708C1102.14 65.4817 1101.58 65.408 1101.13 65.4868C1100.71 65.5532 1100.34 65.8099 1100.04 66.2567L1092.02 78.0368C1091.19 79.2512 1090.37 80.0705 1089.57 80.4946C1088.79 80.9252 1087.93 80.9821 1087 80.6652L1085.41 80.1221L1085.93 70.0886L1086.24 65.5371L1083.9 69.4284L1080.67 74.1573C1079.82 75.4096 1079.02 76.248 1078.29 76.6726C1077.55 77.0972 1076.72 77.1511 1075.79 76.8342L1074.26 76.3105L1075 57.7024C1075.03 57.1397 1074.94 56.7184 1074.74 56.4386C1074.54 56.1588 1074.13 55.9123 1073.5 55.6989C1073.75 54.9797 1074.09 54.432 1074.54 54.0559L1082.2 56.6745C1082.3 57.4279 1082.26 58.0791 1082.07 58.6279C1081.41 58.4016 1080.92 58.36 1080.6 58.503C1080.27 58.6461 1080.05 58.9069 1079.92 59.2854L1079.22 69.2891L1078.88 71.7722L1085.12 62.3316C1085.54 61.5885 1086.02 61.0101 1086.54 60.5966C1087.08 60.1895 1087.62 60.0797 1088.17 60.2672L1091.15 61.2856L1090.27 73.0619L1090.06 75.7168L1091.56 73.4416L1096.46 65.9833C1096.59 65.7945 1096.68 65.6149 1096.74 65.4446C1096.91 64.9525 1096.86 64.5031 1096.6 64.0964C1096.34 63.6707 1095.91 63.3544 1095.3 63.1475C1095.55 62.4283 1095.89 61.8774 1096.31 61.4948L1102.98 63.774Z" fill="#1D3354"/>
<path d="M1116.53 80.963C1116.41 81.6105 1116.02 82.7371 1115.38 84.3428C1114.74 85.9289 1114.24 86.942 1113.89 87.3821C1113.59 87.2415 1113.21 87.0031 1112.75 86.6669L1099.12 83.9737C1098.78 83.2959 1098.68 82.6332 1098.81 81.9858C1099.48 82.1176 1099.99 82.0968 1100.35 81.9234C1100.71 81.75 1100.94 81.3887 1101.05 80.8393L1103.78 67.0363C1103.89 66.5065 1103.8 66.0929 1103.54 65.7954C1103.29 65.5018 1102.83 65.2891 1102.17 65.1572C1102.29 64.5098 1102.64 63.9363 1103.21 63.4369L1114.63 65.6938C1114.99 65.6028 1115.4 65.5607 1115.85 65.5675C1116.32 65.5586 1116.74 65.591 1117.11 65.6646C1117.29 66.2918 1117.45 67.1387 1117.59 68.2052C1117.74 69.2757 1117.78 70.0365 1117.69 70.4878C1117.41 70.6571 1116.96 70.8032 1116.35 70.9262C1115.73 71.0492 1115.21 71.1092 1114.78 71.1063C1114.67 70.3299 1114.39 69.6226 1113.95 68.9842C1113.5 68.3459 1112.92 67.955 1112.19 67.8115L1108.87 67.1542L1107.64 73.3641L1109.76 73.7829C1111.03 74.0349 1111.81 73.4448 1112.09 72.0125C1112.98 72.187 1113.73 72.5501 1114.36 73.1017L1113.27 78.5758C1112.92 78.71 1112.53 78.7952 1112.09 78.8315C1111.66 78.8482 1111.23 78.8139 1110.8 78.7285C1110.95 77.983 1110.88 77.3889 1110.6 76.9463C1110.32 76.5037 1109.9 76.2262 1109.33 76.1137L1107.18 75.6891L1105.81 82.6053L1109.37 83.3091C1110.2 83.472 1110.98 83.2702 1111.72 82.7037C1112.47 82.1176 1113.03 81.3299 1113.38 80.3406L1116.53 80.963Z" fill="#1D3354"/>
<path d="M1119.34 87.6502C1119.14 87.3951 1118.99 87.0937 1118.9 86.746C1118.8 86.3983 1118.77 86.0449 1118.79 85.6858C1119.47 85.7344 1119.96 85.6589 1120.25 85.4595C1120.55 85.2601 1120.71 84.8811 1120.75 84.3225L1121.76 70.2585C1121.8 69.7 1121.69 69.301 1121.43 69.0615C1121.16 68.8021 1120.69 68.6481 1120.02 68.5996C1120.04 68.2405 1120.13 67.9056 1120.27 67.595C1120.41 67.2645 1120.6 66.9874 1120.84 66.7637L1128.23 67.2931C1128.64 67.7833 1128.81 68.4274 1128.75 69.2254C1128.07 69.1768 1127.57 69.2608 1127.23 69.4773C1126.89 69.6938 1126.71 70.0714 1126.67 70.61L1125.6 85.5418L1126.71 85.6211C1128.16 85.7254 1129.27 85.3238 1130.04 84.4162C1130.83 83.5101 1131.28 82.1893 1131.41 80.4537L1133.5 80.6038C1133.82 80.8874 1134.05 81.4653 1134.19 82.3374C1134.33 83.2094 1134.37 84.0544 1134.31 84.8724C1134.22 86.1291 1133.93 87.071 1133.45 87.6978C1132.96 88.3048 1132.22 88.5725 1131.22 88.5011L1119.34 87.6502Z" fill="#1D3354"/>
<path d="M1148.53 73.6747C1148.25 72.3502 1147.81 71.3082 1147.2 70.5487C1146.6 69.7877 1145.88 69.4368 1145.02 69.496C1143.8 69.58 1142.88 70.2254 1142.24 71.4321C1141.6 72.619 1141.36 74.4096 1141.53 76.8039C1141.72 79.697 1142.43 81.7734 1143.64 83.0332C1144.85 84.293 1146.34 84.8616 1148.12 84.7391C1148.97 84.6799 1149.72 84.468 1150.36 84.1033C1150.99 83.7387 1151.44 83.3272 1151.69 82.869C1151.94 83.0321 1152.16 83.2877 1152.34 83.6358C1152.53 83.9839 1152.63 84.3077 1152.65 84.6069C1152.68 85.1058 1152.46 85.6424 1151.98 86.2169C1151.52 86.7901 1150.82 87.2992 1149.89 87.7444C1148.95 88.1696 1147.86 88.4255 1146.6 88.5122C1144.85 88.6333 1143.21 88.3351 1141.7 87.6175C1140.21 86.8985 1138.97 85.7406 1138 84.1437C1137.03 82.5468 1136.46 80.5712 1136.3 78.2168C1136.14 75.9222 1136.4 73.95 1137.06 72.3001C1137.73 70.6303 1138.74 69.3482 1140.08 68.4537C1141.44 67.538 1143.06 67.0154 1144.93 66.886C1145.37 66.8557 1145.87 66.8812 1146.44 66.9624C1147.01 67.0436 1147.51 67.1695 1147.94 67.3401C1148.23 67.1798 1148.66 67.0098 1149.23 66.8302C1149.8 66.6507 1150.24 66.5399 1150.56 66.4979C1151.23 67.8746 1151.68 70.1891 1151.91 73.4414L1148.53 73.6747Z" fill="#1D3354"/>
<path d="M1166.21 85.2849C1164.35 85.7516 1162.63 85.7283 1161.06 85.215C1159.5 84.6774 1158.17 83.7032 1157.05 82.2922C1155.93 80.8813 1155.11 79.1282 1154.59 77.033C1154.04 74.8408 1153.94 72.8666 1154.28 71.1104C1154.62 69.3349 1155.35 67.8623 1156.48 66.6926C1157.63 65.5181 1159.11 64.7048 1160.91 64.2527C1162.77 63.786 1164.49 63.819 1166.07 64.3518C1167.65 64.8845 1168.99 65.8563 1170.11 67.2673C1171.24 68.6539 1172.07 70.4046 1172.6 72.5192C1173.15 74.692 1173.24 76.6686 1172.88 78.4491C1172.54 80.2052 1171.79 81.6705 1170.64 82.845C1169.49 84.0195 1168.02 84.8328 1166.21 85.2849ZM1165.68 83.1606C1166.75 82.8932 1167.46 82.0658 1167.81 80.6783C1168.18 79.286 1167.97 76.9796 1167.16 73.7591C1166.39 70.6939 1165.54 68.628 1164.62 67.5613C1163.69 66.4947 1162.66 66.1023 1161.54 66.3843C1160.47 66.6516 1159.75 67.4815 1159.38 68.8739C1159.03 70.2614 1159.25 72.5556 1160.05 75.7567C1160.82 78.8219 1161.67 80.8975 1162.6 81.9836C1163.55 83.0454 1164.58 83.4377 1165.68 83.1606Z" fill="#1D3354"/>
<path d="M1192.79 51.168C1193.1 51.2811 1193.38 51.4614 1193.64 51.7091C1193.9 51.9568 1194.11 52.2318 1194.27 52.5343C1193.66 52.8449 1193.26 53.1845 1193.07 53.5533C1192.9 53.9129 1192.93 54.333 1193.18 54.8134L1199.62 67.3572C1199.87 67.8554 1200.18 68.1339 1200.55 68.1926C1200.94 68.2422 1201.45 68.1026 1202.09 67.7738C1202.25 68.094 1202.36 68.4328 1202.41 68.7901C1202.46 69.1474 1202.44 69.483 1202.35 69.797L1195.73 73.1946C1195.45 73.0724 1195.17 72.8875 1194.91 72.6398C1194.65 72.3922 1194.43 72.1082 1194.27 71.7879C1194.89 71.4683 1195.31 71.1329 1195.51 70.7819C1195.7 70.4132 1195.67 69.9886 1195.43 69.5082L1189.75 58.4589L1191.09 72.2375C1191.15 72.9078 1191.02 73.4548 1190.72 73.8784C1190.41 74.2841 1189.93 74.656 1189.27 74.9939L1177.37 64.8158L1183.04 75.865C1183.29 76.3454 1183.64 76.6056 1184.08 76.6456C1184.54 76.6587 1185.12 76.4825 1185.84 76.1172C1186 76.4374 1186.11 76.7762 1186.16 77.1335C1186.2 77.4908 1186.19 77.8218 1186.13 78.1267L1180.57 80.9763C1180.29 80.8541 1180.01 80.6692 1179.75 80.4215C1179.49 80.1739 1179.28 79.8899 1179.11 79.5696C1179.77 79.2317 1180.2 78.8872 1180.4 78.5362C1180.59 78.1674 1180.57 77.7429 1180.32 77.2624L1173.88 64.7186C1173.63 64.2382 1173.3 63.9734 1172.87 63.9243C1172.44 63.8752 1171.91 64.0105 1171.29 64.3302C1171.13 64.0277 1171.03 63.6978 1170.98 63.3405C1170.93 62.9833 1170.95 62.6476 1171.04 62.3336L1175.23 60.1827C1176.07 59.7534 1176.8 59.5355 1177.42 59.5289C1178.04 59.5044 1178.68 59.7704 1179.35 60.3269L1185.75 65.8405L1188.52 68.6019L1187.84 64.7719L1186.71 54.2917L1192.79 51.168Z" fill="#1D3354"/>
<path d="M1215.87 51.4518C1216.26 51.9816 1216.83 53.0243 1217.59 54.5799C1218.34 56.1194 1218.75 57.1674 1218.84 57.7238C1218.54 57.8504 1218.1 57.9724 1217.54 58.0897L1206.39 66.3714C1205.67 66.164 1205.11 65.7954 1204.71 65.2655C1205.26 64.8601 1205.59 64.4656 1205.7 64.0821C1205.82 63.6987 1205.71 63.2822 1205.37 62.8326L1196.98 51.537C1196.66 51.1035 1196.3 50.8858 1195.9 50.8839C1195.52 50.8701 1195.05 51.0659 1194.51 51.4714C1194.11 50.9415 1193.92 50.2986 1193.93 49.5427L1203.28 42.6025C1203.45 42.2713 1203.7 41.9425 1204 41.6159C1204.31 41.2614 1204.62 40.9708 1204.92 40.7442C1205.51 41.031 1206.24 41.4824 1207.13 42.0986C1208.02 42.7028 1208.61 43.1896 1208.88 43.5589C1208.82 43.8786 1208.63 44.3077 1208.31 44.8462C1207.98 45.3847 1207.68 45.8112 1207.39 46.1259C1206.74 45.6868 1206.03 45.4175 1205.26 45.3178C1204.48 45.2182 1203.8 45.389 1203.21 45.8302L1200.49 47.8515L1204.26 52.9332L1205.99 51.6454C1207.04 50.8703 1207.12 49.8967 1206.25 48.7246C1206.98 48.188 1207.75 47.8736 1208.58 47.7815L1211.91 52.2612C1211.77 52.6125 1211.57 52.9616 1211.3 53.3083C1211.03 53.639 1210.71 53.9356 1210.36 54.1979C1209.9 53.5878 1209.42 53.2375 1208.9 53.1471C1208.39 53.0566 1207.9 53.1843 1207.43 53.5302L1205.67 54.8359L1209.88 60.4957L1212.79 58.3314C1213.47 57.8306 1213.84 57.1143 1213.92 56.1827C1213.99 55.235 1213.78 54.296 1213.29 53.3657L1215.87 51.4518Z" fill="#1D3354"/>
<path d="M1280.42 19.9081C1280.75 20.4092 1280.94 21.0292 1280.98 21.7678C1280.28 21.8096 1279.74 21.9523 1279.35 22.1958C1278.99 22.4181 1278.75 22.793 1278.64 23.3204L1275.69 37.2615C1275.37 38.7029 1274.93 39.7715 1274.35 40.4673C1273.79 41.162 1273.02 41.5385 1272.04 41.597L1270.36 41.6973L1267.03 32.2193L1265.6 27.887L1264.91 32.3764L1263.71 37.9779C1263.4 39.4592 1262.98 40.536 1262.46 41.2083C1261.94 41.8806 1261.19 42.246 1260.21 42.3045L1258.59 42.4012L1252.23 24.9C1252.04 24.3705 1251.79 24.0143 1251.5 23.8314C1251.21 23.6485 1250.74 23.5767 1250.08 23.6161C1250.03 22.8574 1250.14 22.2196 1250.41 21.7026L1258.5 21.219C1258.88 21.8775 1259.09 22.4963 1259.12 23.0752C1258.42 23.117 1257.95 23.2655 1257.7 23.5205C1257.46 23.7756 1257.35 24.1028 1257.37 24.5021L1260.53 34.0208L1261.15 36.4478L1263.34 25.3472C1263.45 24.4991 1263.67 23.7848 1264 23.2043C1264.34 22.6227 1264.81 22.3145 1265.38 22.2799L1268.53 22.0918L1272.18 33.3241L1272.99 35.8601L1273.52 33.1837L1275.22 24.4265C1275.27 24.2033 1275.28 24.0019 1275.27 23.8222C1275.24 23.3032 1275.03 22.9052 1274.63 22.6285C1274.23 22.3317 1273.71 22.2024 1273.08 22.2406C1273.03 21.482 1273.13 20.8448 1273.38 20.3289L1280.42 19.9081Z" fill="#1D3354"/>
<path d="M1299.03 37.4526C1298.95 38.1069 1298.63 39.2558 1298.09 40.8993C1297.56 42.523 1297.13 43.5657 1296.8 44.0274C1296.5 43.9062 1296.1 43.6927 1295.62 43.3867L1281.85 41.5696C1281.47 40.9145 1281.32 40.2599 1281.41 39.6055C1282.08 39.6945 1282.59 39.6409 1282.94 39.4449C1283.29 39.2488 1283.5 38.8732 1283.58 38.318L1285.42 24.3689C1285.49 23.8335 1285.38 23.426 1285.09 23.1462C1284.83 22.869 1284.36 22.6859 1283.68 22.5969C1283.77 21.9426 1284.08 21.3481 1284.61 20.8135L1296.15 22.3362C1296.51 22.2221 1296.92 22.1541 1297.36 22.1324C1297.83 22.0934 1298.25 22.0988 1298.63 22.1485C1298.85 22.7628 1299.06 23.5978 1299.27 24.6535C1299.49 25.7118 1299.57 26.469 1299.51 26.9251C1299.25 27.1118 1298.81 27.2861 1298.2 27.4482C1297.6 27.6103 1297.08 27.7035 1296.65 27.7278C1296.49 26.9602 1296.17 26.2721 1295.69 25.6634C1295.2 25.0548 1294.59 24.7021 1293.86 24.6053L1290.5 24.1618L1289.67 30.4374L1291.81 30.72C1293.1 30.89 1293.84 30.2514 1294.03 28.8039C1294.92 28.9216 1295.7 29.2358 1296.36 29.7464L1295.63 35.2784C1295.28 35.4349 1294.9 35.5451 1294.46 35.6091C1294.03 35.6533 1293.6 35.6466 1293.17 35.589C1293.26 34.8356 1293.16 34.2469 1292.85 33.8231C1292.55 33.3993 1292.11 33.1494 1291.53 33.0735L1289.36 32.787L1288.44 39.7764L1292.04 40.2513C1292.87 40.3612 1293.64 40.1097 1294.34 39.4969C1295.05 38.8642 1295.55 38.0427 1295.85 37.0326L1299.03 37.4526Z" fill="#1D3354"/>
<path d="M1299.19 44.0539C1299.04 43.7679 1298.94 43.4455 1298.91 43.0866C1298.87 42.7278 1298.9 42.3736 1298.99 42.0242C1299.65 42.188 1300.14 42.1968 1300.46 42.0507C1300.79 41.9046 1301.02 41.5598 1301.15 41.0163L1304.55 27.3312C1304.68 26.7877 1304.64 26.3755 1304.42 26.0945C1304.21 25.7942 1303.77 25.5621 1303.11 25.3983C1303.2 25.0489 1303.34 24.7334 1303.53 24.4517C1303.73 24.1506 1303.97 23.9101 1304.24 23.7301L1311.43 25.5146C1311.75 26.067 1311.81 26.7315 1311.61 27.5079C1310.95 27.3442 1310.44 27.3402 1310.07 27.4961C1309.7 27.652 1309.45 27.992 1309.32 28.5161L1305.72 43.0455L1306.8 43.3128C1308.21 43.6644 1309.38 43.4586 1310.29 42.6954C1311.22 41.9371 1311.89 40.7135 1312.31 39.0247L1314.35 39.5304C1314.62 39.8647 1314.74 40.4732 1314.73 41.3561C1314.72 42.2389 1314.61 43.0783 1314.42 43.8741C1314.11 45.0971 1313.67 45.9758 1313.08 46.5104C1312.5 47.0257 1311.72 47.1628 1310.75 46.922L1299.19 44.0539Z" fill="#1D3354"/>
<path d="M1330.84 38.5413C1331.11 37.2167 1331.12 36.0846 1330.85 35.1448C1330.6 34.2117 1330.07 33.6035 1329.26 33.3205C1328.11 32.9189 1327 33.1473 1325.94 34.0057C1324.89 34.8452 1323.96 36.398 1323.17 38.6643C1322.22 41.4027 1322.05 43.5889 1322.67 45.2229C1323.28 46.8569 1324.43 47.9668 1326.11 48.5527C1326.92 48.8358 1327.69 48.9348 1328.42 48.8499C1329.15 48.765 1329.72 48.5608 1330.13 48.2375C1330.3 48.4865 1330.4 48.8073 1330.43 49.1999C1330.46 49.5925 1330.43 49.9304 1330.33 50.2137C1330.17 50.6859 1329.75 51.0913 1329.08 51.4301C1328.43 51.7754 1327.59 51.9695 1326.56 52.0123C1325.53 52.0363 1324.43 51.8409 1323.24 51.4261C1321.57 50.8468 1320.19 49.9298 1319.08 48.6749C1317.99 47.4266 1317.31 45.8772 1317.05 44.0266C1316.78 42.176 1317.04 40.1365 1317.81 37.908C1318.57 35.7362 1319.58 34.0232 1320.84 32.7691C1322.11 31.4961 1323.54 30.7123 1325.13 30.4177C1326.74 30.1108 1328.43 30.2667 1330.21 30.8855C1330.62 31.0304 1331.07 31.2516 1331.56 31.5492C1332.05 31.8469 1332.46 32.1592 1332.79 32.4863C1333.12 32.4529 1333.58 32.4655 1334.18 32.5242C1334.77 32.5829 1335.22 32.6555 1335.53 32.7419C1335.61 34.2737 1335.12 36.5788 1334.04 39.6571L1330.84 38.5413Z" fill="#1D3354"/>
<path d="M1338.51 57.5273C1336.76 56.7477 1335.42 55.6716 1334.5 54.299C1333.6 52.9162 1333.15 51.3252 1333.14 49.526C1333.13 47.7268 1333.56 45.8403 1334.44 43.8663C1335.35 41.801 1336.49 40.1824 1337.84 39.0105C1339.2 37.8204 1340.69 37.1125 1342.3 36.8869C1343.93 36.6694 1345.59 36.9382 1347.29 37.6935C1349.04 38.473 1350.38 39.5583 1351.29 40.9492C1352.21 42.3401 1352.67 43.9351 1352.68 45.7343C1352.72 47.5234 1352.29 49.414 1351.41 51.4062C1350.5 53.4533 1349.35 55.0678 1347.97 56.2498C1346.62 57.4217 1345.13 58.1164 1343.5 58.3339C1341.87 58.5514 1340.21 58.2825 1338.51 57.5273ZM1339.4 55.5259C1340.41 55.9726 1341.47 55.7582 1342.61 54.8828C1343.76 54.0156 1345.01 52.0649 1346.36 49.0309C1347.64 46.1431 1348.24 43.9936 1348.17 42.5822C1348.1 41.1709 1347.53 40.2298 1346.47 39.7588C1345.47 39.3121 1344.39 39.5225 1343.24 40.3897C1342.1 41.2651 1340.87 43.2106 1339.53 46.2264C1338.24 49.1142 1337.63 51.2729 1337.7 52.7025C1337.79 54.1219 1338.36 55.0631 1339.4 55.5259Z" fill="#1D3354"/>
<path d="M1380.83 54.2165C1380.93 54.5276 1380.96 54.8625 1380.92 55.2211C1380.88 55.5798 1380.79 55.9127 1380.64 56.2199C1380.03 55.9286 1379.52 55.8186 1379.11 55.8899C1378.72 55.9697 1378.4 56.2535 1378.17 56.7415L1372.13 69.4825C1371.89 69.9885 1371.86 70.4052 1372.04 70.7325C1372.23 71.0683 1372.66 71.3905 1373.31 71.6989C1373.15 72.0242 1372.95 72.3148 1372.7 72.5706C1372.44 72.8264 1372.16 73.0156 1371.86 73.1383L1365.14 69.9514C1365.06 69.6489 1365.04 69.3183 1365.08 68.9597C1365.11 68.601 1365.21 68.2591 1365.36 67.9338C1366 68.2336 1366.51 68.3569 1366.92 68.3038C1367.33 68.2326 1367.65 67.953 1367.88 67.465L1373.2 56.2421L1363.08 65.6871C1362.58 66.136 1362.07 66.3703 1361.55 66.3902C1361.04 66.3919 1360.45 66.2343 1359.78 65.9173L1360.62 50.2796L1355.3 61.5025C1355.07 61.9905 1355.07 62.4243 1355.31 62.8039C1355.58 63.174 1356.08 63.5304 1356.8 63.8731C1356.64 64.1984 1356.44 64.489 1356.19 64.7448C1355.93 65.0006 1355.66 65.1941 1355.38 65.3253L1349.74 62.6525C1349.66 62.35 1349.64 62.0194 1349.68 61.6607C1349.72 61.3021 1349.81 60.9601 1349.97 60.6348C1350.64 60.9518 1351.17 61.0837 1351.57 61.0306C1351.98 60.9593 1352.3 60.6797 1352.53 60.1918L1358.57 47.4508C1358.81 46.9628 1358.81 46.5333 1358.59 46.1622C1358.36 45.7912 1357.94 45.4557 1357.3 45.1559C1357.45 44.8486 1357.65 44.5671 1357.9 44.3113C1358.16 44.0555 1358.44 43.8662 1358.74 43.7436L1362.99 45.7611C1363.84 46.1637 1364.46 46.6115 1364.85 47.1044C1365.24 47.5792 1365.42 48.2508 1365.39 49.1194L1364.91 57.5568L1364.4 61.4323L1367.02 58.5591L1374.65 51.2867L1380.83 54.2165Z" fill="#1D3354"/>
<path d="M1394.15 74.535C1393.92 75.1559 1393.37 76.212 1392.49 77.703C1391.62 79.1753 1390.98 80.1026 1390.57 80.4849C1390.29 80.3013 1389.95 80.0084 1389.55 79.6065L1376.48 74.9009C1376.25 74.1806 1376.24 73.5099 1376.47 72.889C1377.11 73.1193 1377.62 73.1758 1378 73.0584C1378.38 72.941 1378.67 72.6189 1378.86 72.092L1383.63 58.8539C1383.81 58.3459 1383.79 57.9247 1383.57 57.5905C1383.37 57.2631 1382.95 56.9842 1382.31 56.7538C1382.53 56.1328 1382.96 55.618 1383.6 55.2093L1394.55 59.1526C1394.92 59.1172 1395.33 59.1365 1395.77 59.2102C1396.24 59.272 1396.65 59.3672 1397.01 59.496C1397.1 60.1433 1397.13 61.0044 1397.1 62.0793C1397.09 63.1609 1397.01 63.9181 1396.86 64.3509C1396.56 64.4766 1396.09 64.5541 1395.46 64.5835C1394.84 64.6128 1394.31 64.5939 1393.89 64.5269C1393.9 63.7426 1393.73 63.0015 1393.38 62.3038C1393.04 61.606 1392.52 61.1317 1391.82 60.8811L1388.63 59.7326L1386.49 65.6883L1388.52 66.4201C1389.74 66.8605 1390.6 66.3938 1391.1 65.0202C1391.95 65.3251 1392.64 65.797 1393.17 66.4361L1391.28 71.6862C1390.91 71.7659 1390.51 71.7911 1390.07 71.7618C1389.64 71.7136 1389.22 71.6149 1388.81 71.4659C1389.07 70.7508 1389.09 70.1535 1388.88 69.674C1388.67 69.1946 1388.29 68.8566 1387.75 68.6601L1385.69 67.9182L1383.3 74.5513L1386.71 75.781C1387.5 76.0656 1388.31 75.9836 1389.13 75.535C1389.96 75.0677 1390.62 74.3718 1391.12 73.4475L1394.15 74.535Z" fill="#1D3354"/>
<path d="M1464.59 66.0786C1464.93 66.5737 1465.13 67.1901 1465.19 67.9278C1464.49 67.9824 1463.95 68.1349 1463.57 68.3854C1463.21 68.6145 1462.98 68.9936 1462.88 69.523L1460.18 83.5159C1459.89 84.9627 1459.46 86.0393 1458.9 86.7456C1458.35 87.4504 1457.59 87.841 1456.61 87.9174L1454.94 88.0484L1451.43 78.633L1449.92 74.3276L1449.31 78.8289L1448.22 84.4514C1447.93 85.9382 1447.53 87.0224 1447.03 87.7041C1446.52 88.3858 1445.77 88.7649 1444.8 88.8413L1443.18 88.9676L1436.5 71.5859C1436.3 71.06 1436.05 70.7083 1435.75 70.5307C1435.46 70.3532 1434.98 70.2901 1434.32 70.3416C1434.26 69.5839 1434.36 68.9441 1434.62 68.4222L1442.7 67.7907C1443.09 68.4422 1443.31 69.057 1443.36 69.6352C1442.66 69.6898 1442.19 69.8468 1441.95 70.1064C1441.71 70.3659 1441.6 70.6951 1441.63 71.0939L1444.96 80.5532L1445.63 82.9683L1447.62 71.8295C1447.71 70.9795 1447.92 70.2614 1448.23 69.675C1448.57 69.0871 1449.03 68.7705 1449.6 68.7253L1452.74 68.4797L1456.6 79.6434L1457.46 82.1641L1457.94 79.4783L1459.48 70.6915C1459.52 70.4675 1459.53 70.2658 1459.52 70.0864C1459.48 69.5679 1459.26 69.174 1458.86 68.9045C1458.45 68.6151 1457.93 68.4954 1457.29 68.5453C1457.23 67.7876 1457.32 67.1486 1457.56 66.6283L1464.59 66.0786Z" fill="#1D3354"/>
</svg>
